{
.appVersion = "1342";
DisplayStrings = (
"hoder/space nnopun/space vowing/space to/space single/space out/space zine./space xylophonesasymptomatic/space romantic/space everlasting\012nnvnonovoo",
"abcdefghijklmnopqrstuvwxyz.,?!-nop\012nnunonouoo\012ABCDEFGHIJKLMNOPQRSTUVWXYZ"
);
customParameters = (
{
name = Axes;
value = (
{
Name = Weight;
Tag = wght;
}
);
}
);
date = "2021-04-01 03:21:47 +0000";
familyName = flowflow;
fontMaster = (
{
ascender = 800;
capHeight = 800;
custom = blocked;
descender = -200;
iconName = Bold_Extended;
id = "DDCA3057-FCE3-4B6F-9FEB-7372E00EB870";
visible = 1;
xHeight = 600;
},
{
ascender = 800;
capHeight = 800;
custom = flowing;
descender = -200;
iconName = Light_Condensed;
id = "4A9CA44B-DF09-4212-AC56-7B16FEBDD924";
weightValue = 900;
xHeight = 600;
}
);
glyphs = (
{
glyphname = a;
lastChange = "2021-04-14 23:12:25 +0000";
layers = (
{
background = {
paths = (
{
closed = 1;
nodes = (
"107 214 LINE",
"67 179 OFFCURVE",
"28 131 OFFCURVE",
"28 72 CURVE SMOOTH",
"28 22 OFFCURVE",
"60 -10 OFFCURVE",
"117 -10 CURVE SMOOTH",
"225 -10 OFFCURVE",
"335 92 OFFCURVE",
"373 240 CURVE",
"368 242 LINE",
"320 144 OFFCURVE",
"234 117 OFFCURVE",
"181 118 CURVE SMOOTH",
"125 119 OFFCURVE",
"106 141 OFFCURVE",
"118 214 CURVE"
);
},
{
closed = 1;
nodes = (
"381 276 LINE",
"345 303 OFFCURVE",
"274 332 OFFCURVE",
"200 332 CURVE SMOOTH",
"135 332 OFFCURVE",
"85 221 OFFCURVE",
"41 186 CURVE",
"64 155 OFFCURVE",
"65 213 OFFCURVE",
"72 185 CURVE",
"169 201 OFFCURVE",
"284 273 OFFCURVE",
"375 253 CURVE"
);
},
{
closed = 1;
nodes = (
"41 233 OFFCURVE",
"21 179 OFFCURVE",
"21 123 CURVE SMOOTH",
"21 39 OFFCURVE",
"67 -10 OFFCURVE",
"136 -10 CURVE SMOOTH",
"225 -10 OFFCURVE",
"345 99 OFFCURVE",
"381 277 CURVE",
"376 271 LINE",
"335 178 OFFCURVE",
"259 125 OFFCURVE",
"188 125 CURVE SMOOTH",
"132 125 OFFCURVE",
"101 164 OFFCURVE",
"89 276 CURVE"
);
},
{
closed = 1;
nodes = (
"41 233 OFFCURVE",
"21 179 OFFCURVE",
"21 123 CURVE SMOOTH",
"21 39 OFFCURVE",
"67 -10 OFFCURVE",
"136 -10 CURVE SMOOTH",
"225 -10 OFFCURVE",
"345 99 OFFCURVE",
"381 277 CURVE",
"376 271 LINE",
"335 178 OFFCURVE",
"259 125 OFFCURVE",
"188 125 CURVE SMOOTH",
"132 125 OFFCURVE",
"101 164 OFFCURVE",
"89 276 CURVE"
);
}
);
};
layerId = "DDCA3057-FCE3-4B6F-9FEB-7372E00EB870";
paths = (
{
closed = 1;
nodes = (
"189 420 OFFCURVE",
"256 445 OFFCURVE",
"316 445 CURVE SMOOTH",
"377 445 OFFCURVE",
"405 399 OFFCURVE",
"405 324 CURVE",
"418 359 LINE",
"359 266 OFFCURVE",
"338 160 OFFCURVE",
"321 20 CURVE",
"344 0 OFFCURVE",
"373 -10 OFFCURVE",
"416 -10 CURVE SMOOTH",
"494 -10 OFFCURVE",
"529 43 OFFCURVE",
"532 197 CURVE",
"504 180 OFFCURVE",
"482 173 OFFCURVE",
"453 173 CURVE SMOOTH",
"423 173 OFFCURVE",
"404 193 OFFCURVE",
"404 227 CURVE SMOOTH",
"404 258 OFFCURVE",
"419 307 OFFCURVE",
"433 343 CURVE",
"470 395 OFFCURVE",
"495 446 OFFCURVE",
"495 503 CURVE SMOOTH",
"495 571 OFFCURVE",
"450 610 OFFCURVE",
"385 610 CURVE SMOOTH",
"283 610 OFFCURVE",
"173 488 OFFCURVE",
"95 372 CURVE",
"96 363 LINE"
);
},
{
closed = 1;
nodes = (
"119 385 LINE",
"120 425 OFFCURVE",
"186 508 OFFCURVE",
"186 554 CURVE SMOOTH",
"186 589 OFFCURVE",
"166 610 OFFCURVE",
"118 610 CURVE SMOOTH",
"75 610 OFFCURVE",
"11 588 OFFCURVE",
"-4 574 CURVE",
"62 496 OFFCURVE",
"90 432 OFFCURVE",
"96 363 CURVE"
);
},
{
closed = 1;
nodes = (
"182 221 OFFCURVE",
"301 257 OFFCURVE",
"407 328 CURVE",
"407 347 LINE",
"291 321 OFFCURVE",
"170 302 OFFCURVE",
"64 303 CURVE",
"70 211 LINE"
);
},
{
closed = 1;
nodes = (
"353 221 OFFCURVE",
"240 131 OFFCURVE",
"168 131 CURVE SMOOTH",
"106 131 OFFCURVE",
"100 232 OFFCURVE",
"68 300 CURVE",
"64 304 LINE",
"43 249 OFFCURVE",
"28 206 OFFCURVE",
"28 145 CURVE SMOOTH",
"28 42 OFFCURVE",
"72 -10 OFFCURVE",
"143 -10 CURVE SMOOTH",
"272 -10 OFFCURVE",
"378 222 OFFCURVE",
"398 322 CURVE",
"390 309 LINE"
);
}
);
width = 533;
},
{
layerId = "4A9CA44B-DF09-4212-AC56-7B16FEBDD924";
paths = (
{
closed = 1;
nodes = (
"189 420 OFFCURVE",
"256 445 OFFCURVE",
"316 445 CURVE SMOOTH",
"377 445 OFFCURVE",
"405 399 OFFCURVE",
"405 324 CURVE",
"418 359 LINE",
"359 266 OFFCURVE",
"338 160 OFFCURVE",
"321 20 CURVE",
"344 0 OFFCURVE",
"373 -10 OFFCURVE",
"416 -10 CURVE SMOOTH",
"494 -10 OFFCURVE",
"529 43 OFFCURVE",
"532 197 CURVE",
"504 180 OFFCURVE",
"482 173 OFFCURVE",
"453 173 CURVE SMOOTH",
"423 173 OFFCURVE",
"404 193 OFFCURVE",
"404 227 CURVE SMOOTH",
"404 258 OFFCURVE",
"419 307 OFFCURVE",
"433 343 CURVE",
"470 395 OFFCURVE",
"495 446 OFFCURVE",
"495 503 CURVE SMOOTH",
"495 571 OFFCURVE",
"450 610 OFFCURVE",
"385 610 CURVE SMOOTH",
"283 610 OFFCURVE",
"173 488 OFFCURVE",
"95 372 CURVE",
"96 363 LINE"
);
},
{
closed = 1;
nodes = (
"119 385 LINE",
"120 425 OFFCURVE",
"186 508 OFFCURVE",
"186 554 CURVE SMOOTH",
"186 589 OFFCURVE",
"166 610 OFFCURVE",
"118 610 CURVE SMOOTH",
"75 610 OFFCURVE",
"11 588 OFFCURVE",
"-4 574 CURVE",
"62 496 OFFCURVE",
"90 432 OFFCURVE",
"96 363 CURVE"
);
},
{
closed = 1;
nodes = (
"182 221 OFFCURVE",
"301 257 OFFCURVE",
"407 328 CURVE",
"407 347 LINE",
"291 321 OFFCURVE",
"170 302 OFFCURVE",
"64 303 CURVE",
"70 211 LINE"
);
},
{
closed = 1;
nodes = (
"353 221 OFFCURVE",
"240 131 OFFCURVE",
"168 131 CURVE SMOOTH",
"106 131 OFFCURVE",
"100 232 OFFCURVE",
"68 300 CURVE",
"64 304 LINE",
"43 249 OFFCURVE",
"28 206 OFFCURVE",
"28 145 CURVE SMOOTH",
"28 42 OFFCURVE",
"72 -10 OFFCURVE",
"143 -10 CURVE SMOOTH",
"272 -10 OFFCURVE",
"378 222 OFFCURVE",
"398 322 CURVE",
"390 309 LINE"
);
}
);
width = 600;
}
);
unicode = 0061;
},
{
glyphname = b;
lastChange = "2021-04-14 23:12:33 +0000";
layers = (
{
layerId = "DDCA3057-FCE3-4B6F-9FEB-7372E00EB870";
paths = (
{
closed = 1;
nodes = (
"476 312 OFFCURVE",
"538 409 OFFCURVE",
"538 487 CURVE SMOOTH",
"538 571 OFFCURVE",
"492 610 OFFCURVE",
"423 610 CURVE SMOOTH",
"312 610 OFFCURVE",
"182 482 OFFCURVE",
"140 263 CURVE",
"152 202 LINE",
"152 307 OFFCURVE",
"206 378 OFFCURVE",
"418 465 CURVE",
"368 469 LINE",
"371 407 OFFCURVE",
"413 366 OFFCURVE",
"429 263 CURVE"
);
},
{
closed = 1;
nodes = (
"412 151 OFFCURVE",
"353 109 OFFCURVE",
"287 108 CURVE SMOOTH",
"244 107 OFFCURVE",
"201 127 OFFCURVE",
"153 185 CURVE",
"149 175 LINE",
"187 17 OFFCURVE",
"242 -10 OFFCURVE",
"318 -10 CURVE SMOOTH",
"427 -10 OFFCURVE",
"474 123 OFFCURVE",
"533 196 CURVE",
"496 221 OFFCURVE",
"469 245 OFFCURVE",
"442 300 CURVE",
"430 304 LINE"
);
},
{
closed = 1;
nodes = (
"152 360 OFFCURVE",
"191 709 OFFCURVE",
"191 749 CURVE SMOOTH",
"191 784 OFFCURVE",
"174 800 OFFCURVE",
"136 800 CURVE SMOOTH",
"93 800 OFFCURVE",
"-1 766 OFFCURVE",
"-36 722 CURVE",
"46 636 OFFCURVE",
"109 243 OFFCURVE",
"141 150 CURVE",
"153 153 LINE",
"120 180 OFFCURVE",
"92 195 OFFCURVE",
"62 195 CURVE SMOOTH",
"30 195 OFFCURVE",
"-7 150 OFFCURVE",
"7 0 CURVE",
"88 10 OFFCURVE",
"148 10 OFFCURVE",
"179 0 CURVE",
"163 91 OFFCURVE",
"152 152 OFFCURVE",
"152 213 CURVE SMOOTH"
);
}
);
width = 555;
},
{
layerId = "4A9CA44B-DF09-4212-AC56-7B16FEBDD924";
paths = (
{
closed = 1;
nodes = (
"476 312 OFFCURVE",
"538 409 OFFCURVE",
"538 487 CURVE SMOOTH",
"538 571 OFFCURVE",
"492 610 OFFCURVE",
"423 610 CURVE SMOOTH",
"312 610 OFFCURVE",
"182 482 OFFCURVE",
"140 263 CURVE",
"152 202 LINE",
"152 307 OFFCURVE",
"206 378 OFFCURVE",
"418 465 CURVE",
"368 469 LINE",
"371 407 OFFCURVE",
"413 366 OFFCURVE",
"429 263 CURVE"
);
},
{
closed = 1;
nodes = (
"412 151 OFFCURVE",
"353 109 OFFCURVE",
"287 108 CURVE SMOOTH",
"244 107 OFFCURVE",
"201 127 OFFCURVE",
"153 185 CURVE",
"149 175 LINE",
"187 17 OFFCURVE",
"242 -10 OFFCURVE",
"318 -10 CURVE SMOOTH",
"427 -10 OFFCURVE",
"474 123 OFFCURVE",
"533 196 CURVE",
"496 221 OFFCURVE",
"469 245 OFFCURVE",
"442 300 CURVE",
"430 304 LINE"
);
},
{
closed = 1;
nodes = (
"152 360 OFFCURVE",
"191 709 OFFCURVE",
"191 749 CURVE SMOOTH",
"191 784 OFFCURVE",
"174 800 OFFCURVE",
"136 800 CURVE SMOOTH",
"93 800 OFFCURVE",
"-1 766 OFFCURVE",
"-36 722 CURVE",
"46 636 OFFCURVE",
"109 243 OFFCURVE",
"141 150 CURVE",
"153 153 LINE",
"120 180 OFFCURVE",
"92 195 OFFCURVE",
"62 195 CURVE SMOOTH",
"30 195 OFFCURVE",
"-7 150 OFFCURVE",
"7 0 CURVE",
"88 10 OFFCURVE",
"148 10 OFFCURVE",
"179 0 CURVE",
"163 91 OFFCURVE",
"152 152 OFFCURVE",
"152 213 CURVE SMOOTH"
);
}
);
width = 567;
}
);
unicode = 0062;
},
{
glyphname = c;
lastChange = "2021-04-14 23:12:40 +0000";
layers = (
{
layerId = "DDCA3057-FCE3-4B6F-9FEB-7372E00EB870";
paths = (
{
closed = 1;
nodes = (
"58 303 OFFCURVE",
"32 236 OFFCURVE",
"32 176 CURVE SMOOTH",
"32 74 OFFCURVE",
"112 -10 OFFCURVE",
"227 -10 CURVE SMOOTH",
"365 -10 OFFCURVE",
"437 101 OFFCURVE",
"440 252 CURVE",
"436 254 LINE",
"409 180 OFFCURVE",
"316 140 OFFCURVE",
"247 140 CURVE SMOOTH",
"155 140 OFFCURVE",
"77 220 OFFCURVE",
"98 342 CURVE"
);
},
{
closed = 1;
nodes = (
"108 406 OFFCURVE",
"180 403 OFFCURVE",
"193 465 CURVE",
"143 461 LINE",
"250 429 OFFCURVE",
"280 400 OFFCURVE",
"355 313 CURVE",
"355 323 LINE",
"324 442 OFFCURVE",
"269 622 OFFCURVE",
"178 622 CURVE SMOOTH",
"89 622 OFFCURVE",
"17 541 OFFCURVE",
"17 377 CURVE",
"45 371 OFFCURVE",
"71 350 OFFCURVE",
"92 303 CURVE"
);
},
{
closed = 1;
nodes = (
"410 389 OFFCURVE",
"455 512 OFFCURVE",
"455 592 CURVE SMOOTH",
"455 625 OFFCURVE",
"431 640 OFFCURVE",
"403 640 CURVE SMOOTH",
"362 640 OFFCURVE",
"319 625 OFFCURVE",
"294 604 CURVE",
"335 521 OFFCURVE",
"324 381 OFFCURVE",
"355 313 CURVE",
"362 313 LINE"
);
}
);
width = 461;
},
{
layerId = "4A9CA44B-DF09-4212-AC56-7B16FEBDD924";
paths = (
{
closed = 1;
nodes = (
"58 303 OFFCURVE",
"32 236 OFFCURVE",
"32 176 CURVE SMOOTH",
"32 74 OFFCURVE",
"112 -10 OFFCURVE",
"227 -10 CURVE SMOOTH",
"365 -10 OFFCURVE",
"437 101 OFFCURVE",
"440 252 CURVE",
"436 254 LINE",
"409 180 OFFCURVE",
"316 140 OFFCURVE",
"247 140 CURVE SMOOTH",
"155 140 OFFCURVE",
"77 220 OFFCURVE",
"98 342 CURVE"
);
},
{
closed = 1;
nodes = (
"108 406 OFFCURVE",
"180 403 OFFCURVE",
"193 465 CURVE",
"143 461 LINE",
"250 429 OFFCURVE",
"280 400 OFFCURVE",
"355 313 CURVE",
"355 323 LINE",
"324 442 OFFCURVE",
"269 622 OFFCURVE",
"178 622 CURVE SMOOTH",
"89 622 OFFCURVE",
"17 541 OFFCURVE",
"17 377 CURVE",
"45 371 OFFCURVE",
"71 350 OFFCURVE",
"92 303 CURVE"
);
},
{
closed = 1;
nodes = (
"410 389 OFFCURVE",
"455 512 OFFCURVE",
"455 592 CURVE SMOOTH",
"455 625 OFFCURVE",
"431 640 OFFCURVE",
"403 640 CURVE SMOOTH",
"362 640 OFFCURVE",
"319 625 OFFCURVE",
"294 604 CURVE",
"335 521 OFFCURVE",
"324 381 OFFCURVE",
"355 313 CURVE",
"362 313 LINE"
);
}
);
width = 600;
}
);
unicode = 0063;
},
{
glyphname = d;
lastChange = "2021-04-14 23:12:44 +0000";
layers = (
{
layerId = "DDCA3057-FCE3-4B6F-9FEB-7372E00EB870";
paths = (
{
closed = 1;
nodes = (
"138 411 OFFCURVE",
"174 422 OFFCURVE",
"177 474 CURVE",
"127 470 LINE",
"329 383 OFFCURVE",
"380 337 OFFCURVE",
"388 232 CURVE",
"394 303 LINE",
"322 522 OFFCURVE",
"253 615 OFFCURVE",
"152 615 CURVE SMOOTH",
"73 615 OFFCURVE",
"17 546 OFFCURVE",
"17 422 CURVE",
"64 411 OFFCURVE",
"94 387 OFFCURVE",
"121 318 CURVE"
);
},
{
closed = 1;
nodes = (
"113 355 LINE",
"65 304 OFFCURVE",
"25 211 OFFCURVE",
"25 126 CURVE SMOOTH",
"25 31 OFFCURVE",
"78 -10 OFFCURVE",
"157 -10 CURVE SMOOTH",
"253 -10 OFFCURVE",
"358 74 OFFCURVE",
"396 222 CURVE",
"395 242 LINE",
"347 144 OFFCURVE",
"271 117 OFFCURVE",
"218 118 CURVE SMOOTH",
"162 119 OFFCURVE",
"103 166 OFFCURVE",
"125 359 CURVE"
);
},
{
closed = 1;
nodes = (
"407 374 OFFCURVE",
"526 590 OFFCURVE",
"526 749 CURVE SMOOTH",
"526 784 OFFCURVE",
"509 800 OFFCURVE",
"471 800 CURVE SMOOTH",
"428 800 OFFCURVE",
"324 766 OFFCURVE",
"289 722 CURVE",
"373 616 OFFCURVE",
"388 306 OFFCURVE",
"388 213 CURVE SMOOTH",
"388 162 OFFCURVE",
"366 101 OFFCURVE",
"340 10 CURVE",
"363 -3 OFFCURVE",
"391 -10 OFFCURVE",
"424 -10 CURVE SMOOTH",
"502 -10 OFFCURVE",
"537 43 OFFCURVE",
"550 187 CURVE",
"520 176 OFFCURVE",
"506 173 OFFCURVE",
"476 173 CURVE SMOOTH",
"434 173 OFFCURVE",
"407 192 OFFCURVE",
"407 226 CURVE SMOOTH"
);
}
);
width = 529;
},
{
layerId = "4A9CA44B-DF09-4212-AC56-7B16FEBDD924";
paths = (
{
closed = 1;
nodes = (
"138 411 OFFCURVE",
"174 422 OFFCURVE",
"177 474 CURVE",
"127 470 LINE",
"329 383 OFFCURVE",
"380 337 OFFCURVE",
"388 232 CURVE",
"394 303 LINE",
"322 522 OFFCURVE",
"253 615 OFFCURVE",
"152 615 CURVE SMOOTH",
"73 615 OFFCURVE",
"17 546 OFFCURVE",
"17 422 CURVE",
"64 411 OFFCURVE",
"94 387 OFFCURVE",
"121 318 CURVE"
);
},
{
closed = 1;
nodes = (
"113 355 LINE",
"65 304 OFFCURVE",
"25 211 OFFCURVE",
"25 126 CURVE SMOOTH",
"25 31 OFFCURVE",
"78 -10 OFFCURVE",
"157 -10 CURVE SMOOTH",
"253 -10 OFFCURVE",
"358 74 OFFCURVE",
"396 222 CURVE",
"395 242 LINE",
"347 144 OFFCURVE",
"271 117 OFFCURVE",
"218 118 CURVE SMOOTH",
"162 119 OFFCURVE",
"103 166 OFFCURVE",
"125 359 CURVE"
);
},
{
closed = 1;
nodes = (
"407 374 OFFCURVE",
"526 590 OFFCURVE",
"526 749 CURVE SMOOTH",
"526 784 OFFCURVE",
"509 800 OFFCURVE",
"471 800 CURVE SMOOTH",
"428 800 OFFCURVE",
"324 766 OFFCURVE",
"289 722 CURVE",
"373 616 OFFCURVE",
"388 306 OFFCURVE",
"388 213 CURVE SMOOTH",
"388 162 OFFCURVE",
"366 101 OFFCURVE",
"340 10 CURVE",
"363 -3 OFFCURVE",
"391 -10 OFFCURVE",
"424 -10 CURVE SMOOTH",
"502 -10 OFFCURVE",
"537 43 OFFCURVE",
"550 187 CURVE",
"520 176 OFFCURVE",
"506 173 OFFCURVE",
"476 173 CURVE SMOOTH",
"434 173 OFFCURVE",
"407 192 OFFCURVE",
"407 226 CURVE SMOOTH"
);
}
);
width = 600;
}
);
unicode = 0064;
},
{
glyphname = e;
lastChange = "2021-04-14 23:12:47 +0000";
layers = (
{
background = {
paths = (
{
closed = 1;
nodes = (
"56 303 OFFCURVE",
"30 236 OFFCURVE",
"30 176 CURVE SMOOTH",
"30 74 OFFCURVE",
"110 -10 OFFCURVE",
"225 -10 CURVE SMOOTH",
"363 -10 OFFCURVE",
"435 101 OFFCURVE",
"438 252 CURVE",
"434 254 LINE",
"407 180 OFFCURVE",
"314 140 OFFCURVE",
"245 140 CURVE SMOOTH",
"153 140 OFFCURVE",
"75 220 OFFCURVE",
"96 342 CURVE"
);
},
{
closed = 1;
nodes = (
"106 406 OFFCURVE",
"178 403 OFFCURVE",
"191 465 CURVE",
"141 461 LINE",
"248 429 OFFCURVE",
"278 400 OFFCURVE",
"353 313 CURVE",
"353 323 LINE",
"322 442 OFFCURVE",
"267 622 OFFCURVE",
"176 622 CURVE SMOOTH",
"87 622 OFFCURVE",
"15 541 OFFCURVE",
"15 377 CURVE",
"43 371 OFFCURVE",
"69 350 OFFCURVE",
"90 303 CURVE"
);
},
{
closed = 1;
nodes = (
"408 389 OFFCURVE",
"453 512 OFFCURVE",
"453 592 CURVE SMOOTH",
"453 625 OFFCURVE",
"429 640 OFFCURVE",
"401 640 CURVE SMOOTH",
"360 640 OFFCURVE",
"317 625 OFFCURVE",
"292 604 CURVE",
"333 521 OFFCURVE",
"322 381 OFFCURVE",
"353 313 CURVE",
"360 313 LINE"
);
}
);
};
layerId = "DDCA3057-FCE3-4B6F-9FEB-7372E00EB870";
paths = (
{
closed = 1;
nodes = (
"60 273 OFFCURVE",
"34 226 OFFCURVE",
"34 166 CURVE SMOOTH",
"34 74 OFFCURVE",
"114 -10 OFFCURVE",
"219 -10 CURVE SMOOTH",
"337 -10 OFFCURVE",
"429 81 OFFCURVE",
"432 252 CURVE",
"428 254 LINE",
"401 180 OFFCURVE",
"328 134 OFFCURVE",
"239 134 CURVE SMOOTH",
"157 134 OFFCURVE",
"99 210 OFFCURVE",
"100 312 CURVE"
);
},
{
closed = 1;
nodes = (
"110 376 OFFCURVE",
"182 443 OFFCURVE",
"195 505 CURVE",
"145 501 LINE",
"281 493 OFFCURVE",
"344 426 OFFCURVE",
"375 312 CURVE",
"379 308 LINE",
"404 355 OFFCURVE",
"420 427 OFFCURVE",
"420 473 CURVE SMOOTH",
"420 567 OFFCURVE",
"353 622 OFFCURVE",
"270 622 CURVE SMOOTH",
"161 622 OFFCURVE",
"15 541 OFFCURVE",
"15 377 CURVE",
"45 359 OFFCURVE",
"76 322 OFFCURVE",
"94 273 CURVE"
);
},
{
closed = 1;
nodes = (
"279 367 OFFCURVE",
"185 334 OFFCURVE",
"91 309 CURVE",
"91 291 LINE",
"187 287 OFFCURVE",
"284 286 OFFCURVE",
"379 308 CURVE",
"373 417 LINE"
);
}
);
width = 445;
},
{
layerId = "4A9CA44B-DF09-4212-AC56-7B16FEBDD924";
paths = (
{
closed = 1;
nodes = (
"60 273 OFFCURVE",
"34 226 OFFCURVE",
"34 166 CURVE SMOOTH",
"34 74 OFFCURVE",
"114 -10 OFFCURVE",
"219 -10 CURVE SMOOTH",
"337 -10 OFFCURVE",
"429 81 OFFCURVE",
"432 252 CURVE",
"428 254 LINE",
"401 180 OFFCURVE",
"328 134 OFFCURVE",
"239 134 CURVE SMOOTH",
"157 134 OFFCURVE",
"99 210 OFFCURVE",
"100 312 CURVE"
);
},
{
closed = 1;
nodes = (
"110 376 OFFCURVE",
"182 443 OFFCURVE",
"195 505 CURVE",
"145 501 LINE",
"281 493 OFFCURVE",
"344 426 OFFCURVE",
"375 312 CURVE",
"379 308 LINE",
"404 355 OFFCURVE",
"420 427 OFFCURVE",
"420 473 CURVE SMOOTH",
"420 567 OFFCURVE",
"353 622 OFFCURVE",
"270 622 CURVE SMOOTH",
"161 622 OFFCURVE",
"15 541 OFFCURVE",
"15 377 CURVE",
"45 359 OFFCURVE",
"76 322 OFFCURVE",
"94 273 CURVE"
);
},
{
closed = 1;
nodes = (
"279 367 OFFCURVE",
"185 334 OFFCURVE",
"91 309 CURVE",
"91 291 LINE",
"187 287 OFFCURVE",
"284 286 OFFCURVE",
"379 308 CURVE",
"373 417 LINE"
);
}
);
width = 600;
}
);
unicode = 0065;
},
{
glyphname = f;
lastChange = "2021-04-14 23:12:51 +0000";
layers = (
{
layerId = "DDCA3057-FCE3-4B6F-9FEB-7372E00EB870";
paths = (
{
closed = 1;
nodes = (
"295 150 OFFCURVE",
"238 299 OFFCURVE",
"132 479 CURVE",
"118 565 LINE",
"135 631 OFFCURVE",
"184 659 OFFCURVE",
"237 659 CURVE SMOOTH",
"281 659 OFFCURVE",
"314 644 OFFCURVE",
"336 627 CURVE",
"330 731 OFFCURVE",
"268 800 OFFCURVE",
"166 800 CURVE SMOOTH",
"93 800 OFFCURVE",
"47 747 OFFCURVE",
"47 693 CURVE SMOOTH",
"47 655 OFFCURVE",
"61 621 OFFCURVE",
"105 578 CURVE",
"124 471 LINE",
"171 303 OFFCURVE",
"180 201 OFFCURVE",
"180 131 CURVE SMOOTH",
"180 7 OFFCURVE",
"137 -17 OFFCURVE",
"77 -17 CURVE SMOOTH",
"48 -17 OFFCURVE",
"12 -10 OFFCURVE",
"-18 7 CURVE",
"-15 -147 OFFCURVE",
"43 -200 OFFCURVE",
"131 -200 CURVE SMOOTH",
"194 -200 OFFCURVE",
"243 -184 OFFCURVE",
"274 -164 CURVE",
"288 -130 OFFCURVE",
"295 -72 OFFCURVE",
"295 3 CURVE SMOOTH"
);
},
{
closed = 1;
nodes = (
"338 527 OFFCURVE",
"291 588 OFFCURVE",
"110 585 CURVE",
"90 597 OFFCURVE",
"68 600 OFFCURVE",
"49 600 CURVE SMOOTH",
"17 600 OFFCURVE",
"-6 582 OFFCURVE",
"-6 528 CURVE SMOOTH",
"-6 494 OFFCURVE",
"5 430 OFFCURVE",
"18 411 CURVE",
"143 411 OFFCURVE",
"225 432 OFFCURVE",
"338 400 CURVE"
);
}
);
width = 356;
},
{
layerId = "4A9CA44B-DF09-4212-AC56-7B16FEBDD924";
paths = (
{
closed = 1;
nodes = (
"295 150 OFFCURVE",
"238 299 OFFCURVE",
"132 479 CURVE",
"118 565 LINE",
"135 631 OFFCURVE",
"184 659 OFFCURVE",
"237 659 CURVE SMOOTH",
"281 659 OFFCURVE",
"314 644 OFFCURVE",
"336 627 CURVE",
"330 731 OFFCURVE",
"268 800 OFFCURVE",
"166 800 CURVE SMOOTH",
"93 800 OFFCURVE",
"47 747 OFFCURVE",
"47 693 CURVE SMOOTH",
"47 655 OFFCURVE",
"61 621 OFFCURVE",
"105 578 CURVE",
"124 471 LINE",
"171 303 OFFCURVE",
"180 201 OFFCURVE",
"180 131 CURVE SMOOTH",
"180 7 OFFCURVE",
"137 -17 OFFCURVE",
"77 -17 CURVE SMOOTH",
"48 -17 OFFCURVE",
"12 -10 OFFCURVE",
"-18 7 CURVE",
"-15 -147 OFFCURVE",
"43 -200 OFFCURVE",
"131 -200 CURVE SMOOTH",
"194 -200 OFFCURVE",
"243 -184 OFFCURVE",
"274 -164 CURVE",
"288 -130 OFFCURVE",
"295 -72 OFFCURVE",
"295 3 CURVE SMOOTH"
);
},
{
closed = 1;
nodes = (
"338 527 OFFCURVE",
"291 588 OFFCURVE",
"110 585 CURVE",
"90 597 OFFCURVE",
"68 600 OFFCURVE",
"49 600 CURVE SMOOTH",
"17 600 OFFCURVE",
"-6 582 OFFCURVE",
"-6 528 CURVE SMOOTH",
"-6 494 OFFCURVE",
"5 430 OFFCURVE",
"18 411 CURVE",
"143 411 OFFCURVE",
"225 432 OFFCURVE",
"338 400 CURVE"
);
}
);
width = 600;
}
);
unicode = 0066;
},
{
glyphname = g;
lastChange = "2021-04-14 23:12:54 +0000";
layers = (
{
layerId = "DDCA3057-FCE3-4B6F-9FEB-7372E00EB870";
paths = (
{
closed = 1;
nodes = (
"142 401 OFFCURVE",
"178 432 OFFCURVE",
"181 474 CURVE",
"131 470 LINE",
"323 383 OFFCURVE",
"374 332 OFFCURVE",
"382 232 CURVE",
"388 298 LINE",
"306 527 OFFCURVE",
"237 615 OFFCURVE",
"146 615 CURVE SMOOTH",
"67 615 OFFCURVE",
"21 546 OFFCURVE",
"21 422 CURVE",
"68 411 OFFCURVE",
"98 387 OFFCURVE",
"125 318 CURVE"
);
},
{
closed = 1;
nodes = (
"117 355 LINE",
"69 304 OFFCURVE",
"29 251 OFFCURVE",
"29 156 CURVE SMOOTH",
"29 61 OFFCURVE",
"82 20 OFFCURVE",
"161 20 CURVE SMOOTH",
"247 20 OFFCURVE",
"352 74 OFFCURVE",
"390 222 CURVE",
"389 242 LINE",
"341 144 OFFCURVE",
"265 137 OFFCURVE",
"222 138 CURVE SMOOTH",
"166 139 OFFCURVE",
"124 177 OFFCURVE",
"124 273 CURVE SMOOTH",
"124 297 OFFCURVE",
"125 325 OFFCURVE",
"129 359 CURVE"
);
},
{
closed = 1;
nodes = (
"423 323 OFFCURVE",
"541 481 OFFCURVE",
"541 549 CURVE SMOOTH",
"541 574 OFFCURVE",
"528 600 OFFCURVE",
"480 600 CURVE SMOOTH",
"427 600 OFFCURVE",
"368 582 OFFCURVE",
"334 542 CURVE",
"356 495 OFFCURVE",
"383 312 OFFCURVE",
"383 185 CURVE SMOOTH",
"383 41 OFFCURVE",
"431 -19 OFFCURVE",
"364 -150 CURVE",
"436 -109 LINE",
"217 -89 OFFCURVE",
"88 -60 OFFCURVE",
"40 4 CURVE",
"9 -35 OFFCURVE",
"-11 -75 OFFCURVE",
"-11 -111 CURVE SMOOTH",
"-11 -165 OFFCURVE",
"42 -200 OFFCURVE",
"231 -200 CURVE SMOOTH",
"445 -200 OFFCURVE",
"563 -151 OFFCURVE",
"563 -50 CURVE SMOOTH",
"563 42 OFFCURVE",
"437 99 OFFCURVE",
"403 204 CURVE"
);
}
);
width = 540;
},
{
layerId = "4A9CA44B-DF09-4212-AC56-7B16FEBDD924";
paths = (
{
closed = 1;
nodes = (
"142 401 OFFCURVE",
"178 432 OFFCURVE",
"181 474 CURVE",
"131 470 LINE",
"323 383 OFFCURVE",
"374 332 OFFCURVE",
"382 232 CURVE",
"388 298 LINE",
"306 527 OFFCURVE",
"237 615 OFFCURVE",
"146 615 CURVE SMOOTH",
"67 615 OFFCURVE",
"21 546 OFFCURVE",
"21 422 CURVE",
"68 411 OFFCURVE",
"98 387 OFFCURVE",
"125 318 CURVE"
);
},
{
closed = 1;
nodes = (
"117 355 LINE",
"69 304 OFFCURVE",
"29 251 OFFCURVE",
"29 156 CURVE SMOOTH",
"29 61 OFFCURVE",
"82 20 OFFCURVE",
"161 20 CURVE SMOOTH",
"247 20 OFFCURVE",
"352 74 OFFCURVE",
"390 222 CURVE",
"389 242 LINE",
"341 144 OFFCURVE",
"265 137 OFFCURVE",
"222 138 CURVE SMOOTH",
"166 139 OFFCURVE",
"124 177 OFFCURVE",
"124 273 CURVE SMOOTH",
"124 297 OFFCURVE",
"125 325 OFFCURVE",
"129 359 CURVE"
);
},
{
closed = 1;
nodes = (
"423 323 OFFCURVE",
"541 481 OFFCURVE",
"541 549 CURVE SMOOTH",
"541 574 OFFCURVE",
"528 600 OFFCURVE",
"480 600 CURVE SMOOTH",
"427 600 OFFCURVE",
"368 582 OFFCURVE",
"334 542 CURVE",
"356 495 OFFCURVE",
"383 312 OFFCURVE",
"383 185 CURVE SMOOTH",
"383 41 OFFCURVE",
"431 -19 OFFCURVE",
"364 -150 CURVE",
"436 -109 LINE",
"217 -89 OFFCURVE",
"88 -60 OFFCURVE",
"40 4 CURVE",
"9 -35 OFFCURVE",
"-11 -75 OFFCURVE",
"-11 -111 CURVE SMOOTH",
"-11 -165 OFFCURVE",
"42 -200 OFFCURVE",
"231 -200 CURVE SMOOTH",
"445 -200 OFFCURVE",
"563 -151 OFFCURVE",
"563 -50 CURVE SMOOTH",
"563 42 OFFCURVE",
"437 99 OFFCURVE",
"403 204 CURVE"
);
}
);
width = 600;
}
);
unicode = 0067;
},
{
glyphname = h;
lastChange = "2021-04-14 23:12:59 +0000";
layers = (
{
layerId = "DDCA3057-FCE3-4B6F-9FEB-7372E00EB870";
paths = (
{
closed = 1;
nodes = (
"152 361 OFFCURVE",
"181 710 OFFCURVE",
"181 749 CURVE SMOOTH",
"181 784 OFFCURVE",
"164 800 OFFCURVE",
"126 800 CURVE SMOOTH",
"83 800 OFFCURVE",
"-1 766 OFFCURVE",
"-36 722 CURVE",
"48 636 OFFCURVE",
"111 243 OFFCURVE",
"141 150 CURVE",
"151 157 LINE",
"120 180 OFFCURVE",
"92 195 OFFCURVE",
"62 195 CURVE SMOOTH",
"30 195 OFFCURVE",
"-7 150 OFFCURVE",
"7 0 CURVE",
"88 10 OFFCURVE",
"168 11 OFFCURVE",
"249 1 CURVE",
"183 92 OFFCURVE",
"152 152 OFFCURVE",
"152 213 CURVE SMOOTH"
);
},
{
closed = 1;
nodes = (
"152 310 OFFCURVE",
"203 405 OFFCURVE",
"264 405 CURVE SMOOTH",
"330 405 OFFCURVE",
"367 346 OFFCURVE",
"393 326 CURVE",
"396 356 LINE",
"338 277 OFFCURVE",
"278 150 OFFCURVE",
"281 10 CURVE",
"304 -3 OFFCURVE",
"329 -10 OFFCURVE",
"382 -10 CURVE SMOOTH",
"460 -10 OFFCURVE",
"495 43 OFFCURVE",
"518 187 CURVE",
"488 176 OFFCURVE",
"464 173 OFFCURVE",
"434 173 CURVE SMOOTH",
"392 173 OFFCURVE",
"371 191 OFFCURVE",
"371 225 CURVE SMOOTH",
"371 261 OFFCURVE",
"384 295 OFFCURVE",
"402 333 CURVE",
"447 382 OFFCURVE",
"481 439 OFFCURVE",
"481 507 CURVE SMOOTH",
"481 571 OFFCURVE",
"435 610 OFFCURVE",
"376 610 CURVE SMOOTH",
"291 610 OFFCURVE",
"181 501 OFFCURVE",
"145 293 CURVE",
"152 213 LINE"
);
}
);
width = 521;
},
{
layerId = "4A9CA44B-DF09-4212-AC56-7B16FEBDD924";
paths = (
{
closed = 1;
nodes = (
"152 361 OFFCURVE",
"181 710 OFFCURVE",
"181 749 CURVE SMOOTH",
"181 784 OFFCURVE",
"164 800 OFFCURVE",
"126 800 CURVE SMOOTH",
"83 800 OFFCURVE",
"-1 766 OFFCURVE",
"-36 722 CURVE",
"48 636 OFFCURVE",
"111 243 OFFCURVE",
"141 150 CURVE",
"151 157 LINE",
"120 180 OFFCURVE",
"92 195 OFFCURVE",
"62 195 CURVE SMOOTH",
"30 195 OFFCURVE",
"-7 150 OFFCURVE",
"7 0 CURVE",
"88 10 OFFCURVE",
"168 11 OFFCURVE",
"249 1 CURVE",
"183 92 OFFCURVE",
"152 152 OFFCURVE",
"152 213 CURVE SMOOTH"
);
},
{
closed = 1;
nodes = (
"152 310 OFFCURVE",
"203 405 OFFCURVE",
"264 405 CURVE SMOOTH",
"330 405 OFFCURVE",
"367 346 OFFCURVE",
"393 326 CURVE",
"396 356 LINE",
"338 277 OFFCURVE",
"278 150 OFFCURVE",
"281 10 CURVE",
"304 -3 OFFCURVE",
"329 -10 OFFCURVE",
"382 -10 CURVE SMOOTH",
"460 -10 OFFCURVE",
"495 43 OFFCURVE",
"518 187 CURVE",
"488 176 OFFCURVE",
"464 173 OFFCURVE",
"434 173 CURVE SMOOTH",
"392 173 OFFCURVE",
"371 191 OFFCURVE",
"371 225 CURVE SMOOTH",
"371 261 OFFCURVE",
"384 295 OFFCURVE",
"402 333 CURVE",
"447 382 OFFCURVE",
"481 439 OFFCURVE",
"481 507 CURVE SMOOTH",
"481 571 OFFCURVE",
"435 610 OFFCURVE",
"376 610 CURVE SMOOTH",
"291 610 OFFCURVE",
"181 501 OFFCURVE",
"145 293 CURVE",
"152 213 LINE"
);
}
);
width = 525;
}
);
rightMetricsKey = n;
unicode = 0068;
},
{
glyphname = i;
lastChange = "2021-04-14 23:13:05 +0000";
layers = (
{
layerId = "DDCA3057-FCE3-4B6F-9FEB-7372E00EB870";
paths = (
{
closed = 1;
nodes = (
"22 394 OFFCURVE",
"51 405 OFFCURVE",
"82 405 CURVE SMOOTH",
"133 405 OFFCURVE",
"179 358 OFFCURVE",
"189 314 CURVE",
"196 349 LINE",
"117 276 OFFCURVE",
"56 160 OFFCURVE",
"59 20 CURVE",
"92 -3 OFFCURVE",
"137 -10 OFFCURVE",
"190 -10 CURVE SMOOTH",
"268 -10 OFFCURVE",
"313 43 OFFCURVE",
"326 197 CURVE",
"296 180 OFFCURVE",
"270 173 OFFCURVE",
"241 173 CURVE SMOOTH",
"201 173 OFFCURVE",
"178 193 OFFCURVE",
"178 227 CURVE SMOOTH",
"178 258 OFFCURVE",
"185 297 OFFCURVE",
"200 333 CURVE",
"245 381 OFFCURVE",
"279 438 OFFCURVE",
"279 497 CURVE SMOOTH",
"279 571 OFFCURVE",
"233 610 OFFCURVE",
"174 610 CURVE SMOOTH",
"72 610 OFFCURVE",
"17 507 OFFCURVE",
"0 373 CURVE"
);
},
{
closed = 1;
nodes = (
"274 782 OFFCURVE",
"221 800 OFFCURVE",
"173 800 CURVE SMOOTH",
"121 800 OFFCURVE",
"87 772 OFFCURVE",
"85 724 CURVE SMOOTH",
"82 674 OFFCURVE",
"109 620 OFFCURVE",
"131 587 CURVE",
"137 586 LINE",
"231 630 OFFCURVE",
"273 668 OFFCURVE",
"304 754 CURVE"
);
}
);
width = 324;
},
{
layerId = "4A9CA44B-DF09-4212-AC56-7B16FEBDD924";
paths = (
{
closed = 1;
nodes = (
"22 394 OFFCURVE",
"51 405 OFFCURVE",
"82 405 CURVE SMOOTH",
"133 405 OFFCURVE",
"179 358 OFFCURVE",
"189 314 CURVE",
"196 349 LINE",
"117 276 OFFCURVE",
"56 160 OFFCURVE",
"59 20 CURVE",
"92 -3 OFFCURVE",
"137 -10 OFFCURVE",
"190 -10 CURVE SMOOTH",
"268 -10 OFFCURVE",
"313 43 OFFCURVE",
"326 197 CURVE",
"296 180 OFFCURVE",
"270 173 OFFCURVE",
"241 173 CURVE SMOOTH",
"201 173 OFFCURVE",
"178 193 OFFCURVE",
"178 227 CURVE SMOOTH",
"178 258 OFFCURVE",
"185 297 OFFCURVE",
"200 333 CURVE",
"245 381 OFFCURVE",
"279 438 OFFCURVE",
"279 497 CURVE SMOOTH",
"279 571 OFFCURVE",
"233 610 OFFCURVE",
"174 610 CURVE SMOOTH",
"72 610 OFFCURVE",
"17 507 OFFCURVE",
"0 373 CURVE"
);
},
{
closed = 1;
nodes = (
"274 782 OFFCURVE",
"221 800 OFFCURVE",
"173 800 CURVE SMOOTH",
"121 800 OFFCURVE",
"87 772 OFFCURVE",
"85 724 CURVE SMOOTH",
"82 674 OFFCURVE",
"109 620 OFFCURVE",
"131 587 CURVE",
"137 586 LINE",
"231 630 OFFCURVE",
"273 668 OFFCURVE",
"304 754 CURVE"
);
}
);
width = 352;
}
);
unicode = 0069;
},
{
glyphname = j;
lastChange = "2021-04-14 23:13:09 +0000";
layers = (
{
layerId = "DDCA3057-FCE3-4B6F-9FEB-7372E00EB870";
paths = (
{
closed = 1;
nodes = (
"278 782 OFFCURVE",
"225 800 OFFCURVE",
"177 800 CURVE SMOOTH",
"125 800 OFFCURVE",
"91 772 OFFCURVE",
"89 724 CURVE SMOOTH",
"86 674 OFFCURVE",
"113 620 OFFCURVE",
"135 587 CURVE",
"141 586 LINE",
"235 630 OFFCURVE",
"277 668 OFFCURVE",
"308 754 CURVE"
);
},
{
closed = 1;
nodes = (
"196 138 OFFCURVE",
"193 21 OFFCURVE",
"106 -130 CURVE",
"178 -39 LINE",
"107 -39 OFFCURVE",
"60 -2 OFFCURVE",
"54 92 CURVE",
"-1 43 OFFCURVE",
"-39 -23 OFFCURVE",
"-39 -81 CURVE SMOOTH",
"-39 -155 OFFCURVE",
"14 -200 OFFCURVE",
"133 -200 CURVE SMOOTH",
"247 -200 OFFCURVE",
"295 -141 OFFCURVE",
"295 -40 CURVE SMOOTH",
"295 92 OFFCURVE",
"225 198 OFFCURVE",
"211 313 CURVE",
"249 362 OFFCURVE",
"283 439 OFFCURVE",
"283 507 CURVE SMOOTH",
"283 571 OFFCURVE",
"237 610 OFFCURVE",
"188 610 CURVE SMOOTH",
"76 610 OFFCURVE",
"20 507 OFFCURVE",
"4 373 CURVE",
"26 394 OFFCURVE",
"55 405 OFFCURVE",
"86 405 CURVE SMOOTH",
"137 405 OFFCURVE",
"174 358 OFFCURVE",
"194 294 CURVE",
"189 329 LINE"
);
}
);
width = 326;
},
{
layerId = "4A9CA44B-DF09-4212-AC56-7B16FEBDD924";
paths = (
{
closed = 1;
nodes = (
"278 782 OFFCURVE",
"225 800 OFFCURVE",
"177 800 CURVE SMOOTH",
"125 800 OFFCURVE",
"91 772 OFFCURVE",
"89 724 CURVE SMOOTH",
"86 674 OFFCURVE",
"113 620 OFFCURVE",
"135 587 CURVE",
"141 586 LINE",
"235 630 OFFCURVE",
"277 668 OFFCURVE",
"308 754 CURVE"
);
},
{
closed = 1;
nodes = (
"196 138 OFFCURVE",
"193 21 OFFCURVE",
"106 -130 CURVE",
"178 -39 LINE",
"107 -39 OFFCURVE",
"60 -2 OFFCURVE",
"54 92 CURVE",
"-1 43 OFFCURVE",
"-39 -23 OFFCURVE",
"-39 -81 CURVE SMOOTH",
"-39 -155 OFFCURVE",
"14 -200 OFFCURVE",
"133 -200 CURVE SMOOTH",
"247 -200 OFFCURVE",
"295 -141 OFFCURVE",
"295 -40 CURVE SMOOTH",
"295 92 OFFCURVE",
"225 198 OFFCURVE",
"211 313 CURVE",
"249 362 OFFCURVE",
"283 439 OFFCURVE",
"283 507 CURVE SMOOTH",
"283 571 OFFCURVE",
"237 610 OFFCURVE",
"188 610 CURVE SMOOTH",
"76 610 OFFCURVE",
"20 507 OFFCURVE",
"4 373 CURVE",
"26 394 OFFCURVE",
"55 405 OFFCURVE",
"86 405 CURVE SMOOTH",
"137 405 OFFCURVE",
"174 358 OFFCURVE",
"194 294 CURVE",
"189 329 LINE"
);
}
);
width = 600;
}
);
rightMetricsKey = i;
unicode = 006A;
},
{
glyphname = k;
lastChange = "2021-04-14 23:13:12 +0000";
layers = (
{
layerId = "DDCA3057-FCE3-4B6F-9FEB-7372E00EB870";
paths = (
{
closed = 1;
nodes = (
"152 361 OFFCURVE",
"181 710 OFFCURVE",
"181 749 CURVE SMOOTH",
"181 784 OFFCURVE",
"164 800 OFFCURVE",
"126 800 CURVE SMOOTH",
"83 800 OFFCURVE",
"-1 766 OFFCURVE",
"-36 722 CURVE",
"48 636 OFFCURVE",
"111 243 OFFCURVE",
"141 150 CURVE",
"151 157 LINE",
"120 180 OFFCURVE",
"92 195 OFFCURVE",
"62 195 CURVE SMOOTH",
"30 195 OFFCURVE",
"-7 150 OFFCURVE",
"7 0 CURVE",
"88 10 OFFCURVE",
"168 11 OFFCURVE",
"249 1 CURVE",
"183 92 OFFCURVE",
"152 152 OFFCURVE",
"152 213 CURVE SMOOTH"
);
},
{
closed = 1;
nodes = (
"279 229 OFFCURVE",
"340 292 OFFCURVE",
"394 347 CURVE",
"467 380 OFFCURVE",
"501 445 OFFCURVE",
"501 507 CURVE SMOOTH",
"501 571 OFFCURVE",
"455 610 OFFCURVE",
"396 610 CURVE SMOOTH",
"311 610 OFFCURVE",
"181 501 OFFCURVE",
"145 293 CURVE",
"152 213 LINE",
"152 310 OFFCURVE",
"223 405 OFFCURVE",
"294 405 CURVE SMOOTH",
"345 405 OFFCURVE",
"364 359 OFFCURVE",
"393 351 CURVE",
"396 363 LINE",
"348 353 OFFCURVE",
"236 275 OFFCURVE",
"202 202 CURVE",
"220 197 OFFCURVE",
"249 176 OFFCURVE",
"257 155 CURVE"
);
},
{
closed = 1;
nodes = (
"250 142 OFFCURVE",
"268 86 OFFCURVE",
"306 10 CURVE",
"329 -3 OFFCURVE",
"354 -10 OFFCURVE",
"392 -10 CURVE SMOOTH",
"470 -10 OFFCURVE",
"514 56 OFFCURVE",
"527 190 CURVE",
"507 169 OFFCURVE",
"474 153 OFFCURVE",
"424 153 CURVE SMOOTH",
"361 153 OFFCURVE",
"288 170 OFFCURVE",
"266 231 CURVE",
"250 235 LINE"
);
}
);
width = 532;
},
{
layerId = "4A9CA44B-DF09-4212-AC56-7B16FEBDD924";
paths = (
{
closed = 1;
nodes = (
"152 361 OFFCURVE",
"181 710 OFFCURVE",
"181 749 CURVE SMOOTH",
"181 784 OFFCURVE",
"164 800 OFFCURVE",
"126 800 CURVE SMOOTH",
"83 800 OFFCURVE",
"-1 766 OFFCURVE",
"-36 722 CURVE",
"48 636 OFFCURVE",
"111 243 OFFCURVE",
"141 150 CURVE",
"151 157 LINE",
"120 180 OFFCURVE",
"92 195 OFFCURVE",
"62 195 CURVE SMOOTH",
"30 195 OFFCURVE",
"-7 150 OFFCURVE",
"7 0 CURVE",
"88 10 OFFCURVE",
"168 11 OFFCURVE",
"249 1 CURVE",
"183 92 OFFCURVE",
"152 152 OFFCURVE",
"152 213 CURVE SMOOTH"
);
},
{
closed = 1;
nodes = (
"279 229 OFFCURVE",
"340 292 OFFCURVE",
"394 347 CURVE",
"467 380 OFFCURVE",
"501 445 OFFCURVE",
"501 507 CURVE SMOOTH",
"501 571 OFFCURVE",
"455 610 OFFCURVE",
"396 610 CURVE SMOOTH",
"311 610 OFFCURVE",
"181 501 OFFCURVE",
"145 293 CURVE",
"152 213 LINE",
"152 310 OFFCURVE",
"223 405 OFFCURVE",
"294 405 CURVE SMOOTH",
"345 405 OFFCURVE",
"364 359 OFFCURVE",
"393 351 CURVE",
"396 363 LINE",
"348 353 OFFCURVE",
"236 275 OFFCURVE",
"202 202 CURVE",
"220 197 OFFCURVE",
"249 176 OFFCURVE",
"257 155 CURVE"
);
},
{
closed = 1;
nodes = (
"250 142 OFFCURVE",
"268 86 OFFCURVE",
"306 10 CURVE",
"329 -3 OFFCURVE",
"354 -10 OFFCURVE",
"392 -10 CURVE SMOOTH",
"470 -10 OFFCURVE",
"514 56 OFFCURVE",
"527 190 CURVE",
"507 169 OFFCURVE",
"474 153 OFFCURVE",
"424 153 CURVE SMOOTH",
"361 153 OFFCURVE",
"288 170 OFFCURVE",
"266 231 CURVE",
"250 235 LINE"
);
}
);
width = 600;
}
);
unicode = 006B;
},
{
glyphname = l;
lastChange = "2021-04-14 23:13:17 +0000";
layers = (
{
background = {
paths = (
{
closed = 1;
nodes = (
"17 394 OFFCURVE",
"46 405 OFFCURVE",
"77 405 CURVE SMOOTH",
"118 405 OFFCURVE",
"156 375 OFFCURVE",
"175 336 CURVE",
"103 257 OFFCURVE",
"51 149 OFFCURVE",
"54 20 CURVE",
"87 -3 OFFCURVE",
"132 -10 OFFCURVE",
"185 -10 CURVE SMOOTH",
"263 -10 OFFCURVE",
"308 43 OFFCURVE",
"321 197 CURVE",
"291 180 OFFCURVE",
"265 173 OFFCURVE",
"236 173 CURVE SMOOTH",
"196 173 OFFCURVE",
"173 193 OFFCURVE",
"173 227 CURVE SMOOTH",
"173 258 OFFCURVE",
"180 297 OFFCURVE",
"195 333 CURVE",
"240 382 OFFCURVE",
"274 439 OFFCURVE",
"274 497 CURVE SMOOTH",
"274 571 OFFCURVE",
"228 610 OFFCURVE",
"169 610 CURVE SMOOTH",
"67 610 OFFCURVE",
"11 507 OFFCURVE",
"-5 373 CURVE"
);
},
{
closed = 1;
nodes = (
"241 782 OFFCURVE",
"188 800 OFFCURVE",
"140 800 CURVE SMOOTH",
"88 800 OFFCURVE",
"54 772 OFFCURVE",
"52 724 CURVE SMOOTH",
"49 674 OFFCURVE",
"76 620 OFFCURVE",
"98 587 CURVE",
"104 586 LINE",
"199 632 OFFCURVE",
"239 668 OFFCURVE",
"271 754 CURVE"
);
}
);
};
layerId = "DDCA3057-FCE3-4B6F-9FEB-7372E00EB870";
paths = (
{
closed = 1;
nodes = (
"23 584 OFFCURVE",
"46 595 OFFCURVE",
"80 595 CURVE SMOOTH",
"136 595 OFFCURVE",
"189 543 OFFCURVE",
"210 448 CURVE",
"217 495 LINE",
"94 355 OFFCURVE",
"47 199 OFFCURVE",
"50 23 CURVE",
"83 1 OFFCURVE",
"128 -10 OFFCURVE",
"171 -10 CURVE SMOOTH",
"267 -10 OFFCURVE",
"309 53 OFFCURVE",
"327 217 CURVE",
"298 186 OFFCURVE",
"271 173 OFFCURVE",
"242 173 CURVE SMOOTH",
"203 173 OFFCURVE",
"177 193 OFFCURVE",
"177 237 CURVE SMOOTH",
"177 281 OFFCURVE",
"189 345 OFFCURVE",
"221 473 CURVE",
"266 542 OFFCURVE",
"290 609 OFFCURVE",
"290 677 CURVE SMOOTH",
"290 761 OFFCURVE",
"234 800 OFFCURVE",
"175 800 CURVE SMOOTH",
"73 800 OFFCURVE",
"17 697 OFFCURVE",
"1 563 CURVE"
);
}
);
width = 335;
},
{
layerId = "4A9CA44B-DF09-4212-AC56-7B16FEBDD924";
paths = (
{
closed = 1;
nodes = (
"23 584 OFFCURVE",
"46 595 OFFCURVE",
"80 595 CURVE SMOOTH",
"136 595 OFFCURVE",
"189 543 OFFCURVE",
"210 448 CURVE",
"217 495 LINE",
"94 355 OFFCURVE",
"47 199 OFFCURVE",
"50 23 CURVE",
"83 1 OFFCURVE",
"128 -10 OFFCURVE",
"171 -10 CURVE SMOOTH",
"267 -10 OFFCURVE",
"309 53 OFFCURVE",
"327 217 CURVE",
"298 186 OFFCURVE",
"271 173 OFFCURVE",
"242 173 CURVE SMOOTH",
"203 173 OFFCURVE",
"177 193 OFFCURVE",
"177 237 CURVE SMOOTH",
"177 281 OFFCURVE",
"189 345 OFFCURVE",
"221 473 CURVE",
"266 542 OFFCURVE",
"290 609 OFFCURVE",
"290 677 CURVE SMOOTH",
"290 761 OFFCURVE",
"234 800 OFFCURVE",
"175 800 CURVE SMOOTH",
"73 800 OFFCURVE",
"17 697 OFFCURVE",
"1 563 CURVE"
);
}
);
width = 334;
}
);
unicode = 006C;
},
{
glyphname = m;
lastChange = "2021-04-14 23:13:22 +0000";
layers = (
{
layerId = "DDCA3057-FCE3-4B6F-9FEB-7372E00EB870";
paths = (
{
closed = 1;
nodes = (
"188 361 OFFCURVE",
"207 510 OFFCURVE",
"207 549 CURVE SMOOTH",
"207 584 OFFCURVE",
"190 600 OFFCURVE",
"152 600 CURVE SMOOTH",
"109 600 OFFCURVE",
"25 566 OFFCURVE",
"-10 522 CURVE",
"76 434 OFFCURVE",
"152 257 OFFCURVE",
"178 141 CURVE",
"189 156 LINE",
"156 180 OFFCURVE",
"128 195 OFFCURVE",
"98 195 CURVE SMOOTH",
"66 195 OFFCURVE",
"29 150 OFFCURVE",
"43 0 CURVE",
"124 10 OFFCURVE",
"204 11 OFFCURVE",
"285 1 CURVE",
"219 92 OFFCURVE",
"188 152 OFFCURVE",
"188 213 CURVE SMOOTH"
);
},
{
closed = 1;
nodes = (
"188 310 OFFCURVE",
"239 405 OFFCURVE",
"300 405 CURVE SMOOTH",
"366 405 OFFCURVE",
"403 343 OFFCURVE",
"429 325 CURVE",
"432 356 LINE",
"373 277 OFFCURVE",
"320 150 OFFCURVE",
"323 10 CURVE",
"346 -3 OFFCURVE",
"371 -10 OFFCURVE",
"424 -10 CURVE SMOOTH",
"468 -10 OFFCURVE",
"495 4 OFFCURVE",
"495 37 CURVE SMOOTH",
"495 97 OFFCURVE",
"439 167 OFFCURVE",
"407 233 CURVE",
"407 313 OFFCURVE",
"477 435 OFFCURVE",
"477 507 CURVE SMOOTH",
"477 571 OFFCURVE",
"441 610 OFFCURVE",
"382 610 CURVE SMOOTH",
"297 610 OFFCURVE",
"217 501 OFFCURVE",
"181 293 CURVE",
"188 213 LINE"
);
},
{
closed = 1;
nodes = (
"420 294 OFFCURVE",
"458 405 OFFCURVE",
"519 405 CURVE SMOOTH",
"585 405 OFFCURVE",
"622 343 OFFCURVE",
"649 327 CURVE",
"651 356 LINE",
"593 277 OFFCURVE",
"533 150 OFFCURVE",
"536 10 CURVE",
"559 -3 OFFCURVE",
"584 -10 OFFCURVE",
"637 -10 CURVE SMOOTH",
"715 -10 OFFCURVE",
"750 43 OFFCURVE",
"773 187 CURVE",
"743 176 OFFCURVE",
"719 173 OFFCURVE",
"689 173 CURVE SMOOTH",
"647 173 OFFCURVE",
"626 191 OFFCURVE",
"626 225 CURVE SMOOTH",
"626 261 OFFCURVE",
"639 295 OFFCURVE",
"657 333 CURVE",
"702 382 OFFCURVE",
"736 439 OFFCURVE",
"736 507 CURVE SMOOTH",
"736 571 OFFCURVE",
"690 610 OFFCURVE",
"631 610 CURVE SMOOTH",
"546 610 OFFCURVE",
"446 501 OFFCURVE",
"410 293 CURVE",
"405 213 LINE"
);
}
);
width = 779;
},
{
layerId = "4A9CA44B-DF09-4212-AC56-7B16FEBDD924";
paths = (
{
closed = 1;
nodes = (
"188 361 OFFCURVE",
"207 510 OFFCURVE",
"207 549 CURVE SMOOTH",
"207 584 OFFCURVE",
"190 600 OFFCURVE",
"152 600 CURVE SMOOTH",
"109 600 OFFCURVE",
"25 566 OFFCURVE",
"-10 522 CURVE",
"76 434 OFFCURVE",
"152 257 OFFCURVE",
"178 141 CURVE",
"189 156 LINE",
"156 180 OFFCURVE",
"128 195 OFFCURVE",
"98 195 CURVE SMOOTH",
"66 195 OFFCURVE",
"29 150 OFFCURVE",
"43 0 CURVE",
"124 10 OFFCURVE",
"204 11 OFFCURVE",
"285 1 CURVE",
"219 92 OFFCURVE",
"188 152 OFFCURVE",
"188 213 CURVE SMOOTH"
);
},
{
closed = 1;
nodes = (
"188 310 OFFCURVE",
"239 405 OFFCURVE",
"300 405 CURVE SMOOTH",
"366 405 OFFCURVE",
"403 343 OFFCURVE",
"429 325 CURVE",
"432 356 LINE",
"373 277 OFFCURVE",
"320 150 OFFCURVE",
"323 10 CURVE",
"346 -3 OFFCURVE",
"371 -10 OFFCURVE",
"424 -10 CURVE SMOOTH",
"468 -10 OFFCURVE",
"495 4 OFFCURVE",
"495 37 CURVE SMOOTH",
"495 97 OFFCURVE",
"439 167 OFFCURVE",
"407 233 CURVE",
"407 313 OFFCURVE",
"477 435 OFFCURVE",
"477 507 CURVE SMOOTH",
"477 571 OFFCURVE",
"441 610 OFFCURVE",
"382 610 CURVE SMOOTH",
"297 610 OFFCURVE",
"217 501 OFFCURVE",
"181 293 CURVE",
"188 213 LINE"
);
},
{
closed = 1;
nodes = (
"420 294 OFFCURVE",
"458 405 OFFCURVE",
"519 405 CURVE SMOOTH",
"585 405 OFFCURVE",
"622 343 OFFCURVE",
"649 327 CURVE",
"651 356 LINE",
"593 277 OFFCURVE",
"533 150 OFFCURVE",
"536 10 CURVE",
"559 -3 OFFCURVE",
"584 -10 OFFCURVE",
"637 -10 CURVE SMOOTH",
"715 -10 OFFCURVE",
"750 43 OFFCURVE",
"773 187 CURVE",
"743 176 OFFCURVE",
"719 173 OFFCURVE",
"689 173 CURVE SMOOTH",
"647 173 OFFCURVE",
"626 191 OFFCURVE",
"626 225 CURVE SMOOTH",
"626 261 OFFCURVE",
"639 295 OFFCURVE",
"657 333 CURVE",
"702 382 OFFCURVE",
"736 439 OFFCURVE",
"736 507 CURVE SMOOTH",
"736 571 OFFCURVE",
"690 610 OFFCURVE",
"631 610 CURVE SMOOTH",
"546 610 OFFCURVE",
"446 501 OFFCURVE",
"410 293 CURVE",
"405 213 LINE"
);
}
);
width = 760;
}
);
leftMetricsKey = n;
rightMetricsKey = n;
unicode = 006D;
},
{
glyphname = n;
lastChange = "2021-04-22 13:47:16 +0000";
layers = (
{
layerId = "DDCA3057-FCE3-4B6F-9FEB-7372E00EB870";
paths = (
{
closed = 1;
nodes = (
"188 361 OFFCURVE",
"207 510 OFFCURVE",
"207 549 CURVE SMOOTH",
"207 584 OFFCURVE",
"190 600 OFFCURVE",
"152 600 CURVE SMOOTH",
"109 600 OFFCURVE",
"25 566 OFFCURVE",
"-10 522 CURVE",
"21 490 OFFCURVE",
"50 447 OFFCURVE",
"77 400 CURVE SMOOTH",
"124 315 OFFCURVE",
"161 215 OFFCURVE",
"178 141 CURVE",
"191 150 LINE",
"149 184 OFFCURVE",
"128 195 OFFCURVE",
"98 195 CURVE SMOOTH",
"66 195 OFFCURVE",
"29 150 OFFCURVE",
"43 0 CURVE",
"124 10 OFFCURVE",
"204 11 OFFCURVE",
"285 1 CURVE",
"219 92 OFFCURVE",
"188 152 OFFCURVE",
"188 213 CURVE SMOOTH"
);
},
{
closed = 1;
nodes = (
"188 308 OFFCURVE",
"239 405 OFFCURVE",
"300 405 CURVE SMOOTH",
"366 405 OFFCURVE",
"397 346 OFFCURVE",
"430 319 CURVE",
"432 356 LINE",
"374 277 OFFCURVE",
"314 150 OFFCURVE",
"317 10 CURVE",
"340 -3 OFFCURVE",
"365 -10 OFFCURVE",
"418 -10 CURVE SMOOTH",
"496 -10 OFFCURVE",
"531 43 OFFCURVE",
"554 187 CURVE",
"524 176 OFFCURVE",
"500 173 OFFCURVE",
"470 173 CURVE SMOOTH",
"428 173 OFFCURVE",
"407 191 OFFCURVE",
"407 225 CURVE SMOOTH",
"407 261 OFFCURVE",
"419 295 OFFCURVE",
"438 333 CURVE",
"483 382 OFFCURVE",
"517 439 OFFCURVE",
"517 507 CURVE SMOOTH",
"517 571 OFFCURVE",
"471 610 OFFCURVE",
"412 610 CURVE SMOOTH",
"326 610 OFFCURVE",
"215 499 OFFCURVE",
"181 293 CURVE",
"188 213 LINE"
);
}
);
width = 560;
},
{
layerId = "4A9CA44B-DF09-4212-AC56-7B16FEBDD924";
paths = (
{
closed = 1;
nodes = (
"212 291 OFFCURVE",
"258 389 OFFCURVE",
"258 478 CURVE SMOOTH",
"258 553 OFFCURVE",
"212 600 OFFCURVE",
"154 600 CURVE SMOOTH",
"81 600 OFFCURVE",
"-28 506 OFFCURVE",
"-8 252 CURVE",
"20 335 OFFCURVE",
"48 356 OFFCURVE",
"83 356 CURVE SMOOTH",
"143 356 OFFCURVE",
"187 295 OFFCURVE",
"199 141 CURVE",
"207 150 LINE",
"178 234 OFFCURVE",
"129 255 OFFCURVE",
"100 255 CURVE SMOOTH",
"58 255 OFFCURVE",
"31 160 OFFCURVE",
"65 40 CURVE",
"97 13 OFFCURVE",
"146 0 OFFCURVE",
"217 0 CURVE",
"213 52 OFFCURVE",
"212 72 OFFCURVE",
"212 113 CURVE SMOOTH"
);
},
{
closed = 1;
nodes = (
"228 117 OFFCURVE",
"255 201 OFFCURVE",
"280 259 CURVE SMOOTH",
"307 322 OFFCURVE",
"348 382 OFFCURVE",
"389 400 CURVE",
"325 397 LINE",
"419 397 OFFCURVE",
"415 150 OFFCURVE",
"289 60 CURVE",
"319 14 OFFCURVE",
"377 -10 OFFCURVE",
"430 -10 CURVE SMOOTH",
"558 -10 OFFCURVE",
"656 92 OFFCURVE",
"586 330 CURVE",
"586 239 OFFCURVE",
"520 153 OFFCURVE",
"460 153 CURVE SMOOTH",
"429 153 OFFCURVE",
"409 172 OFFCURVE",
"409 196 CURVE SMOOTH",
"409 252 OFFCURVE",
"512 321 OFFCURVE",
"469 397 CURVE",
"522 412 OFFCURVE",
"577 469 OFFCURVE",
"577 537 CURVE SMOOTH",
"577 581 OFFCURVE",
"548 610 OFFCURVE",
"504 610 CURVE SMOOTH",
"369 610 OFFCURVE",
"232 329 OFFCURVE",
"199 9 CURVE",
"216 0 LINE"
);
}
);
width = 596;
}
);
unicode = 006E;
},
{
glyphname = o;
lastChange = "2021-04-14 22:13:05 +0000";
layers = (
{
layerId = "DDCA3057-FCE3-4B6F-9FEB-7372E00EB870";
paths = (
{
closed = 1;
nodes = (
"286 620 OFFCURVE",
"256 584 OFFCURVE",
"256 525 CURVE SMOOTH",
"256 472 OFFCURVE",
"282 437 OFFCURVE",
"321 389 CURVE SMOOTH",
"365 335 OFFCURVE",
"386 275 OFFCURVE",
"387 189 CURVE",
"392 189 LINE",
"428 249 OFFCURVE",
"460 343 OFFCURVE",
"460 444 CURVE SMOOTH",
"460 533 OFFCURVE",
"433 620 OFFCURVE",
"344 620 CURVE SMOOTH"
);
},
{
closed = 1;
nodes = (
"250 600 OFFCURVE",
"204 610 OFFCURVE",
"148 610 CURVE SMOOTH",
"73 610 OFFCURVE",
"23 569 OFFCURVE",
"20 498 CURVE SMOOTH",
"16 426 OFFCURVE",
"55 332 OFFCURVE",
"87 284 CURVE",
"96 282 LINE",
"137 393 OFFCURVE",
"198 491 OFFCURVE",
"285 554 CURVE",
"284 574 LINE"
);
},
{
closed = 1;
nodes = (
"65 277 OFFCURVE",
"29 206 OFFCURVE",
"29 146 CURVE SMOOTH",
"29 54 OFFCURVE",
"89 -10 OFFCURVE",
"214 -10 CURVE SMOOTH",
"342 -10 OFFCURVE",
"413 100 OFFCURVE",
"496 178 CURVE",
"466 198 OFFCURVE",
"440 203 OFFCURVE",
"390 210 CURVE",
"355 156 OFFCURVE",
"303 125 OFFCURVE",
"244 125 CURVE SMOOTH",
"142 125 OFFCURVE",
"94 200 OFFCURVE",
"95 312 CURVE"
);
}
);
width = 493;
},
{
layerId = "4A9CA44B-DF09-4212-AC56-7B16FEBDD924";
paths = (
{
closed = 1;
nodes = (
"299 620 OFFCURVE",
"261 584 OFFCURVE",
"261 525 CURVE SMOOTH",
"261 472 OFFCURVE",
"272 423 OFFCURVE",
"281 377 CURVE SMOOTH",
"295 305 OFFCURVE",
"311 219 OFFCURVE",
"262 127 CURVE",
"266 124 LINE",
"369 205 OFFCURVE",
"445 333 OFFCURVE",
"445 484 CURVE SMOOTH",
"445 573 OFFCURVE",
"416 620 OFFCURVE",
"357 620 CURVE SMOOTH"
);
},
{
closed = 1;
nodes = (
"249 598 OFFCURVE",
"209 610 OFFCURVE",
"153 610 CURVE SMOOTH",
"62 610 OFFCURVE",
"-6 555 OFFCURVE",
"-6 442 CURVE SMOOTH",
"-6 378 OFFCURVE",
"-8 341 OFFCURVE",
"-17 275 CURVE",
"-10 274 LINE",
"89 354 OFFCURVE",
"171 426 OFFCURVE",
"280 564 CURVE",
"279 574 LINE"
);
},
{
closed = 1;
nodes = (
"84 336 OFFCURVE",
"24 246 OFFCURVE",
"24 146 CURVE SMOOTH",
"24 64 OFFCURVE",
"84 -10 OFFCURVE",
"209 -10 CURVE SMOOTH",
"337 -10 OFFCURVE",
"452 103 OFFCURVE",
"485 341 CURVE",
"483 339 OFFCURVE",
"481 338 OFFCURVE",
"477 338 CURVE",
"415 210 OFFCURVE",
"308 125 OFFCURVE",
"239 125 CURVE SMOOTH",
"137 125 OFFCURVE",
"89 220 OFFCURVE",
"210 382 CURVE"
);
}
);
width = 474;
}
);
unicode = 006F;
},
{
glyphname = p;
lastChange = "2021-04-14 23:13:47 +0000";
layers = (
{
layerId = "DDCA3057-FCE3-4B6F-9FEB-7372E00EB870";
paths = (
{
closed = 1;
nodes = (
"468 317 OFFCURVE",
"532 414 OFFCURVE",
"532 492 CURVE SMOOTH",
"532 576 OFFCURVE",
"486 615 OFFCURVE",
"417 615 CURVE SMOOTH",
"306 615 OFFCURVE",
"226 502 OFFCURVE",
"144 283 CURVE",
"146 202 LINE",
"146 307 OFFCURVE",
"200 383 OFFCURVE",
"412 470 CURVE",
"362 474 LINE",
"365 412 OFFCURVE",
"407 371 OFFCURVE",
"423 268 CURVE"
);
},
{
closed = 1;
nodes = (
"75 93 OFFCURVE",
"23 -44 OFFCURVE",
"23 -200 CURVE",
"97 -190 OFFCURVE",
"162 -190 OFFCURVE",
"220 -200 CURVE",
"220 -58 OFFCURVE",
"146 105 OFFCURVE",
"146 202 CURVE SMOOTH",
"146 341 OFFCURVE",
"222 480 OFFCURVE",
"222 539 CURVE SMOOTH",
"222 574 OFFCURVE",
"205 600 OFFCURVE",
"147 600 CURVE SMOOTH",
"94 600 OFFCURVE",
"20 572 OFFCURVE",
"-15 522 CURVE",
"7 485 OFFCURVE",
"34 423 OFFCURVE",
"59 352 CURVE SMOOTH",
"93 256 OFFCURVE",
"125 145 OFFCURVE",
"142 64 CURVE",
"156 94 LINE"
);
},
{
closed = 1;
nodes = (
"406 156 OFFCURVE",
"347 109 OFFCURVE",
"281 108 CURVE SMOOTH",
"238 107 OFFCURVE",
"195 127 OFFCURVE",
"147 185 CURVE",
"146 175 LINE",
"184 17 OFFCURVE",
"236 -10 OFFCURVE",
"312 -10 CURVE SMOOTH",
"421 -10 OFFCURVE",
"468 123 OFFCURVE",
"527 196 CURVE",
"490 221 OFFCURVE",
"463 250 OFFCURVE",
"436 305 CURVE",
"424 309 LINE"
);
}
);
width = 549;
},
{
background = {
paths = (
{
closed = 1;
nodes = (
"192 291 OFFCURVE",
"229 389 OFFCURVE",
"229 478 CURVE SMOOTH",
"229 553 OFFCURVE",
"192 600 OFFCURVE",
"134 600 CURVE SMOOTH",
"61 600 OFFCURVE",
"-48 506 OFFCURVE",
"-28 252 CURVE",
"0 335 OFFCURVE",
"28 356 OFFCURVE",
"63 356 CURVE SMOOTH",
"123 356 OFFCURVE",
"162 295 OFFCURVE",
"174 141 CURVE",
"182 150 LINE",
"153 234 OFFCURVE",
"109 255 OFFCURVE",
"80 255 CURVE SMOOTH",
"38 255 OFFCURVE",
"11 160 OFFCURVE",
"45 40 CURVE",
"77 13 OFFCURVE",
"126 0 OFFCURVE",
"197 0 CURVE",
"193 52 OFFCURVE",
"192 72 OFFCURVE",
"192 113 CURVE SMOOTH"
);
},
{
closed = 1;
nodes = (
"217 97 OFFCURVE",
"235 201 OFFCURVE",
"260 259 CURVE SMOOTH",
"287 322 OFFCURVE",
"328 382 OFFCURVE",
"369 400 CURVE",
"305 397 LINE",
"399 397 OFFCURVE",
"395 150 OFFCURVE",
"269 60 CURVE",
"299 14 OFFCURVE",
"357 -10 OFFCURVE",
"410 -10 CURVE SMOOTH",
"538 -10 OFFCURVE",
"636 92 OFFCURVE",
"566 330 CURVE",
"566 239 OFFCURVE",
"500 153 OFFCURVE",
"440 153 CURVE SMOOTH",
"409 153 OFFCURVE",
"389 172 OFFCURVE",
"389 196 CURVE SMOOTH",
"389 252 OFFCURVE",
"492 341 OFFCURVE",
"449 397 CURVE",
"502 412 OFFCURVE",
"557 469 OFFCURVE",
"557 537 CURVE SMOOTH",
"557 581 OFFCURVE",
"523 610 OFFCURVE",
"484 610 CURVE SMOOTH",
"349 610 OFFCURVE",
"208 329 OFFCURVE",
"175 9 CURVE",
"196 0 LINE"
);
}
);
};
layerId = "4A9CA44B-DF09-4212-AC56-7B16FEBDD924";
paths = (
{
closed = 1;
nodes = (
"464 252 OFFCURVE",
"521 409 OFFCURVE",
"521 517 CURVE SMOOTH",
"521 571 OFFCURVE",
"491 610 OFFCURVE",
"441 610 CURVE SMOOTH",
"301 610 OFFCURVE",
"140 340 OFFCURVE",
"150 81 CURVE",
"163 -20 LINE",
"161 255 OFFCURVE",
"255 378 OFFCURVE",
"387 465 CURVE",
"337 469 LINE",
"369 387 OFFCURVE",
"372 256 OFFCURVE",
"318 83 CURVE"
);
},
{
closed = 1;
nodes = (
"70 173 OFFCURVE",
"-22 16 OFFCURVE",
"-22 -140 CURVE",
"12 -180 OFFCURVE",
"117 -200 OFFCURVE",
"175 -200 CURVE",
"175 -58 OFFCURVE",
"143 105 OFFCURVE",
"151 202 CURVE SMOOTH",
"163 341 OFFCURVE",
"217 470 OFFCURVE",
"217 529 CURVE SMOOTH",
"217 564 OFFCURVE",
"194 600 OFFCURVE",
"141 600 CURVE SMOOTH",
"63 600 OFFCURVE",
"-15 524 OFFCURVE",
"-15 253 CURVE",
"6 335 OFFCURVE",
"24 356 OFFCURVE",
"51 356 CURVE SMOOTH",
"94 356 OFFCURVE",
"123 294 OFFCURVE",
"137 64 CURVE",
"151 94 LINE"
);
},
{
closed = 1;
nodes = (
"447 145 OFFCURVE",
"406 108 OFFCURVE",
"339 108 CURVE SMOOTH",
"286 108 OFFCURVE",
"238 134 OFFCURVE",
"232 215 CURVE",
"228 215 LINE",
"186 54 OFFCURVE",
"241 -10 OFFCURVE",
"328 -10 CURVE SMOOTH",
"406 -10 OFFCURVE",
"436 29 OFFCURVE",
"456 83 CURVE",
"513 93 OFFCURVE",
"543 163 OFFCURVE",
"543 316 CURVE",
"534 324 LINE"
);
}
);
width = 544;
},
{
associatedMasterId = "4A9CA44B-DF09-4212-AC56-7B16FEBDD924";
background = {
paths = (
{
closed = 1;
nodes = (
"192 291 OFFCURVE",
"229 389 OFFCURVE",
"229 478 CURVE SMOOTH",
"229 553 OFFCURVE",
"192 600 OFFCURVE",
"134 600 CURVE SMOOTH",
"61 600 OFFCURVE",
"-48 506 OFFCURVE",
"-28 252 CURVE",
"0 335 OFFCURVE",
"28 356 OFFCURVE",
"63 356 CURVE SMOOTH",
"123 356 OFFCURVE",
"162 295 OFFCURVE",
"174 141 CURVE",
"182 150 LINE",
"153 234 OFFCURVE",
"109 255 OFFCURVE",
"80 255 CURVE SMOOTH",
"38 255 OFFCURVE",
"11 160 OFFCURVE",
"45 40 CURVE",
"77 13 OFFCURVE",
"126 0 OFFCURVE",
"197 0 CURVE",
"193 52 OFFCURVE",
"192 72 OFFCURVE",
"192 113 CURVE SMOOTH"
);
},
{
closed = 1;
nodes = (
"217 97 OFFCURVE",
"235 201 OFFCURVE",
"260 259 CURVE SMOOTH",
"287 322 OFFCURVE",
"328 382 OFFCURVE",
"369 400 CURVE",
"305 397 LINE",
"399 397 OFFCURVE",
"395 150 OFFCURVE",
"269 60 CURVE",
"299 14 OFFCURVE",
"357 -10 OFFCURVE",
"410 -10 CURVE SMOOTH",
"538 -10 OFFCURVE",
"636 92 OFFCURVE",
"566 330 CURVE",
"566 239 OFFCURVE",
"500 153 OFFCURVE",
"440 153 CURVE SMOOTH",
"409 153 OFFCURVE",
"389 172 OFFCURVE",
"389 196 CURVE SMOOTH",
"389 252 OFFCURVE",
"492 341 OFFCURVE",
"449 397 CURVE",
"502 412 OFFCURVE",
"557 469 OFFCURVE",
"557 537 CURVE SMOOTH",
"557 581 OFFCURVE",
"523 610 OFFCURVE",
"484 610 CURVE SMOOTH",
"349 610 OFFCURVE",
"208 329 OFFCURVE",
"175 9 CURVE",
"196 0 LINE"
);
}
);
};
layerId = "F91C20A8-9E0F-4361-870C-5B7D227FF93F";
name = "Apr 1 21, 14:40";
paths = (
{
closed = 1;
nodes = (
"434 252 OFFCURVE",
"517 419 OFFCURVE",
"517 527 CURVE SMOOTH",
"517 581 OFFCURVE",
"491 610 OFFCURVE",
"441 610 CURVE SMOOTH",
"301 610 OFFCURVE",
"140 340 OFFCURVE",
"150 81 CURVE",
"164 0 LINE",
"164 275 OFFCURVE",
"255 378 OFFCURVE",
"387 465 CURVE",
"337 469 LINE",
"340 407 OFFCURVE",
"372 306 OFFCURVE",
"318 83 CURVE"
);
},
{
closed = 1;
nodes = (
"70 173 OFFCURVE",
"-22 16 OFFCURVE",
"-22 -140 CURVE",
"12 -180 OFFCURVE",
"117 -200 OFFCURVE",
"175 -200 CURVE",
"175 -58 OFFCURVE",
"151 105 OFFCURVE",
"151 202 CURVE SMOOTH",
"151 341 OFFCURVE",
"227 480 OFFCURVE",
"227 539 CURVE SMOOTH",
"227 574 OFFCURVE",
"180 600 OFFCURVE",
"122 600 CURVE SMOOTH",
"49 600 OFFCURVE",
"-15 554 OFFCURVE",
"-15 253 CURVE",
"6 335 OFFCURVE",
"24 356 OFFCURVE",
"51 356 CURVE SMOOTH",
"94 356 OFFCURVE",
"123 294 OFFCURVE",
"137 64 CURVE",
"151 94 LINE"
);
},
{
closed = 1;
nodes = (
"447 145 OFFCURVE",
"376 108 OFFCURVE",
"289 108 CURVE SMOOTH",
"256 108 OFFCURVE",
"238 134 OFFCURVE",
"232 215 CURVE",
"228 215 LINE",
"186 54 OFFCURVE",
"241 -10 OFFCURVE",
"328 -10 CURVE SMOOTH",
"376 -10 OFFCURVE",
"456 19 OFFCURVE",
"456 93 CURVE",
"533 132 OFFCURVE",
"546 239 OFFCURVE",
"534 286 CURVE",
"534 324 LINE"
);
}
);
width = 544;
}
);
unicode = 0070;
},
{
glyphname = q;
lastChange = "2021-04-14 23:13:59 +0000";
layers = (
{
layerId = "DDCA3057-FCE3-4B6F-9FEB-7372E00EB870";
paths = (
{
closed = 1;
nodes = (
"137 401 OFFCURVE",
"173 432 OFFCURVE",
"176 474 CURVE",
"126 470 LINE",
"328 383 OFFCURVE",
"379 332 OFFCURVE",
"387 232 CURVE",
"393 298 LINE",
"311 517 OFFCURVE",
"242 615 OFFCURVE",
"141 615 CURVE SMOOTH",
"62 615 OFFCURVE",
"16 536 OFFCURVE",
"16 412 CURVE",
"63 411 OFFCURVE",
"93 387 OFFCURVE",
"120 318 CURVE"
);
},
{
closed = 1;
nodes = (
"112 355 LINE",
"64 304 OFFCURVE",
"24 211 OFFCURVE",
"24 126 CURVE SMOOTH",
"24 31 OFFCURVE",
"77 -10 OFFCURVE",
"156 -10 CURVE SMOOTH",
"252 -10 OFFCURVE",
"357 74 OFFCURVE",
"395 222 CURVE",
"394 242 LINE",
"346 144 OFFCURVE",
"270 117 OFFCURVE",
"217 118 CURVE SMOOTH",
"161 119 OFFCURVE",
"102 166 OFFCURVE",
"124 359 CURVE"
);
},
{
closed = 1;
nodes = (
"388 95 OFFCURVE",
"301 -58 OFFCURVE",
"301 -200 CURVE",
"359 -190 OFFCURVE",
"434 -190 OFFCURVE",
"508 -200 CURVE",
"508 -44 OFFCURVE",
"462 92 OFFCURVE",
"381 94 CURVE",
"395 64 LINE",
"395 203 OFFCURVE",
"553 481 OFFCURVE",
"553 539 CURVE SMOOTH",
"553 574 OFFCURVE",
"536 600 OFFCURVE",
"478 600 CURVE SMOOTH",
"425 600 OFFCURVE",
"370 572 OFFCURVE",
"336 522 CURVE",
"358 485 OFFCURVE",
"388 319 OFFCURVE",
"388 192 CURVE SMOOTH"
);
}
);
width = 540;
},
{
layerId = "4A9CA44B-DF09-4212-AC56-7B16FEBDD924";
paths = (
{
closed = 1;
nodes = (
"137 401 OFFCURVE",
"173 432 OFFCURVE",
"176 474 CURVE",
"126 470 LINE",
"328 383 OFFCURVE",
"379 332 OFFCURVE",
"387 232 CURVE",
"393 298 LINE",
"311 517 OFFCURVE",
"242 615 OFFCURVE",
"141 615 CURVE SMOOTH",
"62 615 OFFCURVE",
"16 536 OFFCURVE",
"16 412 CURVE",
"63 411 OFFCURVE",
"93 387 OFFCURVE",
"120 318 CURVE"
);
},
{
closed = 1;
nodes = (
"112 355 LINE",
"64 304 OFFCURVE",
"24 211 OFFCURVE",
"24 126 CURVE SMOOTH",
"24 31 OFFCURVE",
"77 -10 OFFCURVE",
"156 -10 CURVE SMOOTH",
"252 -10 OFFCURVE",
"357 74 OFFCURVE",
"395 222 CURVE",
"394 242 LINE",
"346 144 OFFCURVE",
"270 117 OFFCURVE",
"217 118 CURVE SMOOTH",
"161 119 OFFCURVE",
"102 166 OFFCURVE",
"124 359 CURVE"
);
},
{
closed = 1;
nodes = (
"388 95 OFFCURVE",
"301 -58 OFFCURVE",
"301 -200 CURVE",
"359 -190 OFFCURVE",
"434 -190 OFFCURVE",
"508 -200 CURVE",
"508 -44 OFFCURVE",
"462 92 OFFCURVE",
"381 94 CURVE",
"395 64 LINE",
"395 203 OFFCURVE",
"553 481 OFFCURVE",
"553 539 CURVE SMOOTH",
"553 574 OFFCURVE",
"536 600 OFFCURVE",
"478 600 CURVE SMOOTH",
"425 600 OFFCURVE",
"370 572 OFFCURVE",
"336 522 CURVE",
"358 485 OFFCURVE",
"388 319 OFFCURVE",
"388 192 CURVE SMOOTH"
);
}
);
width = 600;
}
);
unicode = 0071;
},
{
glyphname = r;
lastChange = "2021-04-22 13:50:54 +0000";
layers = (
{
layerId = "DDCA3057-FCE3-4B6F-9FEB-7372E00EB870";
paths = (
{
closed = 1;
nodes = (
"188 361 OFFCURVE",
"207 510 OFFCURVE",
"207 549 CURVE SMOOTH",
"207 584 OFFCURVE",
"190 600 OFFCURVE",
"152 600 CURVE SMOOTH",
"109 600 OFFCURVE",
"25 566 OFFCURVE",
"-10 522 CURVE",
"76 434 OFFCURVE",
"152 257 OFFCURVE",
"178 141 CURVE",
"191 160 LINE",
"156 183 OFFCURVE",
"128 195 OFFCURVE",
"98 195 CURVE SMOOTH",
"66 195 OFFCURVE",
"29 150 OFFCURVE",
"43 0 CURVE",
"124 10 OFFCURVE",
"204 11 OFFCURVE",
"285 1 CURVE",
"233 61 OFFCURVE",
"188 152 OFFCURVE",
"188 233 CURVE SMOOTH"
);
},
{
closed = 1;
nodes = (
"443 362 OFFCURVE",
"477 439 OFFCURVE",
"477 507 CURVE SMOOTH",
"477 571 OFFCURVE",
"451 610 OFFCURVE",
"392 610 CURVE SMOOTH",
"307 610 OFFCURVE",
"217 501 OFFCURVE",
"181 313 CURVE",
"188 233 LINE",
"188 330 OFFCURVE",
"239 405 OFFCURVE",
"300 405 CURVE SMOOTH",
"341 405 OFFCURVE",
"374 362 OFFCURVE",
"398 313 CURVE"
);
}
);
width = 476;
},
{
background = {
paths = (
{
closed = 1;
nodes = (
"212 291 OFFCURVE",
"249 389 OFFCURVE",
"249 478 CURVE SMOOTH",
"249 553 OFFCURVE",
"212 600 OFFCURVE",
"154 600 CURVE SMOOTH",
"81 600 OFFCURVE",
"-28 506 OFFCURVE",
"-8 252 CURVE",
"20 335 OFFCURVE",
"48 356 OFFCURVE",
"83 356 CURVE SMOOTH",
"143 356 OFFCURVE",
"182 295 OFFCURVE",
"194 141 CURVE",
"202 150 LINE",
"173 234 OFFCURVE",
"129 255 OFFCURVE",
"100 255 CURVE SMOOTH",
"58 255 OFFCURVE",
"31 160 OFFCURVE",
"65 40 CURVE",
"97 13 OFFCURVE",
"146 0 OFFCURVE",
"217 0 CURVE",
"213 52 OFFCURVE",
"212 72 OFFCURVE",
"212 113 CURVE SMOOTH"
);
}
);
};
layerId = "4A9CA44B-DF09-4212-AC56-7B16FEBDD924";
paths = (
{
closed = 1;
nodes = (
"212 291 OFFCURVE",
"243 389 OFFCURVE",
"243 478 CURVE SMOOTH",
"243 553 OFFCURVE",
"212 600 OFFCURVE",
"154 600 CURVE SMOOTH",
"81 600 OFFCURVE",
"-28 506 OFFCURVE",
"-8 252 CURVE",
"20 335 OFFCURVE",
"48 356 OFFCURVE",
"83 356 CURVE SMOOTH",
"143 356 OFFCURVE",
"192 295 OFFCURVE",
"204 141 CURVE",
"212 150 LINE",
"183 234 OFFCURVE",
"129 255 OFFCURVE",
"100 255 CURVE SMOOTH",
"58 255 OFFCURVE",
"31 160 OFFCURVE",
"65 40 CURVE",
"97 13 OFFCURVE",
"146 0 OFFCURVE",
"217 0 CURVE",
"213 52 OFFCURVE",
"212 72 OFFCURVE",
"212 113 CURVE SMOOTH"
);
},
{
closed = 1;
nodes = (
"448 312 OFFCURVE",
"488 412 OFFCURVE",
"488 500 CURVE SMOOTH",
"488 560 OFFCURVE",
"455 610 OFFCURVE",
"401 610 CURVE SMOOTH",
"316 610 OFFCURVE",
"245 511 OFFCURVE",
"209 103 CURVE",
"216 3 LINE",
"216 100 OFFCURVE",
"259 405 OFFCURVE",
"340 405 CURVE SMOOTH",
"381 405 OFFCURVE",
"399 332 OFFCURVE",
"363 203 CURVE"
);
}
);
width = 474;
}
);
leftMetricsKey = n;
unicode = 0072;
changeCount = 1;
},
{
glyphname = t;
lastChange = "2021-04-14 23:14:09 +0000";
layers = (
{
background = {
paths = (
{
closed = 1;
nodes = (
"-39 406 OFFCURVE",
"-3 417 OFFCURVE",
"0 469 CURVE",
"-50 465 LINE",
"152 378 OFFCURVE",
"203 337 OFFCURVE",
"211 232 CURVE",
"217 303 LINE",
"145 522 OFFCURVE",
"76 610 OFFCURVE",
"-25 610 CURVE SMOOTH",
"-104 610 OFFCURVE",
"-160 541 OFFCURVE",
"-160 417 CURVE",
"-113 406 OFFCURVE",
"-83 382 OFFCURVE",
"-56 313 CURVE"
);
}
);
};
layerId = "DDCA3057-FCE3-4B6F-9FEB-7372E00EB870";
paths = (
{
closed = 1;
nodes = (
"166 564 LINE",
"213 614 OFFCURVE",
"242 665 OFFCURVE",
"242 699 CURVE SMOOTH",
"242 744 OFFCURVE",
"211 770 OFFCURVE",
"166 770 CURVE SMOOTH",
"113 770 OFFCURVE",
"79 748 OFFCURVE",
"44 712 CURVE",
"89 676 OFFCURVE",
"122 636 OFFCURVE",
"156 573 CURVE",
"153 485 LINE",
"110 395 OFFCURVE",
"39 199 OFFCURVE",
"42 23 CURVE",
"75 1 OFFCURVE",
"140 -10 OFFCURVE",
"183 -10 CURVE SMOOTH",
"279 -10 OFFCURVE",
"331 53 OFFCURVE",
"349 217 CURVE",
"320 186 OFFCURVE",
"279 153 OFFCURVE",
"240 153 CURVE SMOOTH",
"154 153 OFFCURVE",
"131 208 OFFCURVE",
"158 457 CURVE"
);
},
{
closed = 1;
nodes = (
"231 549 OFFCURVE",
"149 600 OFFCURVE",
"24 600 CURVE",
"11 581 OFFCURVE",
"0 515 OFFCURVE",
"0 481 CURVE SMOOTH",
"0 433 OFFCURVE",
"24 415 OFFCURVE",
"137 426 CURVE",
"268 370 OFFCURVE",
"344 484 OFFCURVE",
"344 601 CURVE"
);
}
);
width = 349;
},
{
layerId = "4A9CA44B-DF09-4212-AC56-7B16FEBDD924";
paths = (
{
closed = 1;
nodes = (
"166 564 LINE",
"213 614 OFFCURVE",
"242 665 OFFCURVE",
"242 699 CURVE SMOOTH",
"242 744 OFFCURVE",
"211 770 OFFCURVE",
"166 770 CURVE SMOOTH",
"113 770 OFFCURVE",
"79 748 OFFCURVE",
"44 712 CURVE",
"89 676 OFFCURVE",
"122 636 OFFCURVE",
"156 573 CURVE",
"153 485 LINE",
"110 395 OFFCURVE",
"39 199 OFFCURVE",
"42 23 CURVE",
"75 1 OFFCURVE",
"140 -10 OFFCURVE",
"183 -10 CURVE SMOOTH",
"279 -10 OFFCURVE",
"331 53 OFFCURVE",
"349 217 CURVE",
"320 186 OFFCURVE",
"279 153 OFFCURVE",
"240 153 CURVE SMOOTH",
"154 153 OFFCURVE",
"131 208 OFFCURVE",
"158 457 CURVE"
);
},
{
closed = 1;
nodes = (
"231 549 OFFCURVE",
"149 600 OFFCURVE",
"24 600 CURVE",
"11 581 OFFCURVE",
"0 515 OFFCURVE",
"0 481 CURVE SMOOTH",
"0 433 OFFCURVE",
"24 415 OFFCURVE",
"137 426 CURVE",
"268 370 OFFCURVE",
"344 484 OFFCURVE",
"344 601 CURVE"
);
}
);
width = 600;
}
);
rightMetricsKey = l;
unicode = 0074;
},
{
glyphname = u;
lastChange = "2021-04-22 15:44:58 +0000";
layers = (
{
layerId = "DDCA3057-FCE3-4B6F-9FEB-7372E00EB870";
paths = (
{
closed = 1;
nodes = (
"147 379 OFFCURVE",
"244 480 OFFCURVE",
"244 549 CURVE SMOOTH",
"244 584 OFFCURVE",
"227 610 OFFCURVE",
"179 610 CURVE SMOOTH",
"106 610 OFFCURVE",
"42 576 OFFCURVE",
"-3 522 CURVE",
"36 477 OFFCURVE",
"66 436 OFFCURVE",
"90 393 CURVE SMOOTH",
"113 348 OFFCURVE",
"129 302 OFFCURVE",
"139 246 CURVE",
"146 297 LINE",
"92 248 OFFCURVE",
"47 171 OFFCURVE",
"47 93 CURVE SMOOTH",
"47 29 OFFCURVE",
"83 0 OFFCURVE",
"142 0 CURVE SMOOTH",
"227 0 OFFCURVE",
"326 135 OFFCURVE",
"377 262 CURVE",
"377 288 LINE",
"341 217 OFFCURVE",
"265 165 OFFCURVE",
"204 165 CURVE SMOOTH",
"170 165 OFFCURVE",
"147 185 OFFCURVE",
"147 251 CURVE SMOOTH"
);
},
{
closed = 1;
nodes = (
"465 453 OFFCURVE",
"501 514 OFFCURVE",
"511 599 CURVE",
"464 599 OFFCURVE",
"426 596 OFFCURVE",
"397 590 CURVE SMOOTH",
"335 577 OFFCURVE",
"309 550 OFFCURVE",
"309 509 CURVE SMOOTH",
"309 427 OFFCURVE",
"352 365 OFFCURVE",
"412 335 CURVE",
"407 370 LINE",
"376 287 OFFCURVE",
"321 150 OFFCURVE",
"324 10 CURVE",
"347 -3 OFFCURVE",
"372 -10 OFFCURVE",
"405 -10 CURVE SMOOTH",
"447 -10 OFFCURVE",
"479 10 OFFCURVE",
"504 58 CURVE SMOOTH",
"520 89 OFFCURVE",
"532 131 OFFCURVE",
"541 187 CURVE",
"511 176 OFFCURVE",
"487 173 OFFCURVE",
"467 173 CURVE SMOOTH",
"425 173 OFFCURVE",
"404 216 OFFCURVE",
"424 392 CURVE"
);
}
);
width = 545;
},
{
background = {
paths = (
{
closed = 1;
nodes = (
"188 291 OFFCURVE",
"225 389 OFFCURVE",
"225 478 CURVE SMOOTH",
"225 553 OFFCURVE",
"188 600 OFFCURVE",
"130 600 CURVE SMOOTH",
"57 600 OFFCURVE",
"-52 506 OFFCURVE",
"-32 252 CURVE",
"-4 335 OFFCURVE",
"24 356 OFFCURVE",
"59 356 CURVE SMOOTH",
"119 356 OFFCURVE",
"158 295 OFFCURVE",
"170 141 CURVE",
"178 150 LINE",
"149 234 OFFCURVE",
"105 255 OFFCURVE",
"76 255 CURVE SMOOTH",
"34 255 OFFCURVE",
"7 160 OFFCURVE",
"41 40 CURVE",
"73 13 OFFCURVE",
"122 0 OFFCURVE",
"193 0 CURVE",
"189 52 OFFCURVE",
"188 72 OFFCURVE",
"188 113 CURVE SMOOTH"
);
},
{
closed = 1;
nodes = (
"213 97 OFFCURVE",
"231 201 OFFCURVE",
"256 259 CURVE SMOOTH",
"283 322 OFFCURVE",
"324 382 OFFCURVE",
"365 400 CURVE",
"301 397 LINE",
"395 397 OFFCURVE",
"391 150 OFFCURVE",
"265 60 CURVE",
"295 14 OFFCURVE",
"353 -10 OFFCURVE",
"406 -10 CURVE SMOOTH",
"534 -10 OFFCURVE",
"632 92 OFFCURVE",
"562 330 CURVE",
"562 239 OFFCURVE",
"496 153 OFFCURVE",
"436 153 CURVE SMOOTH",
"405 153 OFFCURVE",
"385 172 OFFCURVE",
"385 196 CURVE SMOOTH",
"385 252 OFFCURVE",
"488 321 OFFCURVE",
"445 397 CURVE",
"498 412 OFFCURVE",
"553 469 OFFCURVE",
"553 537 CURVE SMOOTH",
"553 581 OFFCURVE",
"524 610 OFFCURVE",
"480 610 CURVE SMOOTH",
"345 610 OFFCURVE",
"204 329 OFFCURVE",
"171 9 CURVE",
"192 0 LINE"
);
}
);
};
layerId = "4A9CA44B-DF09-4212-AC56-7B16FEBDD924";
paths = (
{
closed = 1;
nodes = (
"163 333 OFFCURVE",
"260 430 OFFCURVE",
"260 539 CURVE SMOOTH",
"260 584 OFFCURVE",
"235 610 OFFCURVE",
"182 610 CURVE SMOOTH",
"79 610 OFFCURVE",
"-17 500 OFFCURVE",
"-17 242 CURVE",
"23 358 OFFCURVE",
"49 378 OFFCURVE",
"76 378 CURVE SMOOTH",
"137 378 OFFCURVE",
"130 266 OFFCURVE",
"160 226 CURVE",
"162 263 LINE",
"108 224 OFFCURVE",
"23 145 OFFCURVE",
"23 77 CURVE SMOOTH",
"23 23 OFFCURVE",
"63 0 OFFCURVE",
"112 0 CURVE SMOOTH",
"257 0 OFFCURVE",
"392 275 OFFCURVE",
"443 402 CURVE",
"443 438 LINE",
"367 267 OFFCURVE",
"275 165 OFFCURVE",
"211 165 CURVE SMOOTH",
"180 165 OFFCURVE",
"163 179 OFFCURVE",
"163 215 CURVE SMOOTH"
);
},
{
closed = 1;
nodes = (
"473 419 OFFCURVE",
"517 496 OFFCURVE",
"581 536 CURVE",
"576 568 OFFCURVE",
"501 593 OFFCURVE",
"438 591 CURVE SMOOTH",
"392 590 OFFCURVE",
"353 575 OFFCURVE",
"353 539 CURVE SMOOTH",
"353 493 OFFCURVE",
"378 427 OFFCURVE",
"438 375 CURVE",
"443 450 LINE",
"427 329 OFFCURVE",
"382 158 OFFCURVE",
"310 12 CURVE",
"353 -3 OFFCURVE",
"378 -10 OFFCURVE",
"411 -10 CURVE SMOOTH",
"509 -10 OFFCURVE",
"584 66 OFFCURVE",
"584 167 CURVE SMOOTH",
"584 219 OFFCURVE",
"573 259 OFFCURVE",
"557 327 CURVE",
"537 194 OFFCURVE",
"503 173 OFFCURVE",
"473 173 CURVE SMOOTH",
"431 173 OFFCURVE",
"418 218 OFFCURVE",
"438 342 CURVE"
);
}
);
width = 565;
}
);
unicode = 0075;
changeCount = 297;
},
{
glyphname = v;
lastChange = "2021-04-14 23:14:15 +0000";
layers = (
{
layerId = "DDCA3057-FCE3-4B6F-9FEB-7372E00EB870";
paths = (
{
closed = 1;
nodes = (
"361 -10 OFFCURVE",
"406 123 OFFCURVE",
"463 191 CURVE",
"428 212 OFFCURVE",
"403 226 OFFCURVE",
"387 226 CURVE",
"353 173 OFFCURVE",
"308 150 OFFCURVE",
"279 150 CURVE SMOOTH",
"213 150 OFFCURVE",
"187 219 OFFCURVE",
"160 233 CURVE",
"158 204 LINE",
"196 283 OFFCURVE",
"230 400 OFFCURVE",
"227 590 CURVE",
"204 603 OFFCURVE",
"179 610 OFFCURVE",
"136 610 CURVE SMOOTH",
"48 610 OFFCURVE",
"3 537 OFFCURVE",
"-10 363 CURVE",
"20 374 OFFCURVE",
"54 377 OFFCURVE",
"84 377 CURVE SMOOTH",
"142 377 OFFCURVE",
"161 357 OFFCURVE",
"161 315 CURVE SMOOTH",
"161 284 OFFCURVE",
"159 265 OFFCURVE",
"152 227 CURVE",
"104 198 OFFCURVE",
"76 161 OFFCURVE",
"76 113 CURVE SMOOTH",
"76 39 OFFCURVE",
"139 -10 OFFCURVE",
"228 -10 CURVE SMOOTH"
);
},
{
closed = 1;
nodes = (
"394 204 LINE",
"458 303 OFFCURVE",
"453 461 OFFCURVE",
"486 580 CURVE",
"453 598 OFFCURVE",
"398 610 OFFCURVE",
"355 610 CURVE SMOOTH",
"301 610 OFFCURVE",
"274 586 OFFCURVE",
"274 553 CURVE SMOOTH",
"274 493 OFFCURVE",
"324 383 OFFCURVE",
"402 317 CURVE",
"402 247 OFFCURVE",
"362 165 OFFCURVE",
"362 133 CURVE"
);
}
);
width = 499;
},
{
layerId = "4A9CA44B-DF09-4212-AC56-7B16FEBDD924";
paths = (
{
closed = 1;
nodes = (
"361 -10 OFFCURVE",
"406 123 OFFCURVE",
"463 191 CURVE",
"428 212 OFFCURVE",
"403 226 OFFCURVE",
"387 226 CURVE",
"353 173 OFFCURVE",
"308 150 OFFCURVE",
"279 150 CURVE SMOOTH",
"213 150 OFFCURVE",
"187 219 OFFCURVE",
"160 233 CURVE",
"158 204 LINE",
"196 283 OFFCURVE",
"230 400 OFFCURVE",
"227 590 CURVE",
"204 603 OFFCURVE",
"179 610 OFFCURVE",
"136 610 CURVE SMOOTH",
"48 610 OFFCURVE",
"3 537 OFFCURVE",
"-10 363 CURVE",
"20 374 OFFCURVE",
"54 377 OFFCURVE",
"84 377 CURVE SMOOTH",
"142 377 OFFCURVE",
"161 357 OFFCURVE",
"161 315 CURVE SMOOTH",
"161 284 OFFCURVE",
"159 265 OFFCURVE",
"152 227 CURVE",
"104 198 OFFCURVE",
"76 161 OFFCURVE",
"76 113 CURVE SMOOTH",
"76 39 OFFCURVE",
"139 -10 OFFCURVE",
"228 -10 CURVE SMOOTH"
);
},
{
closed = 1;
nodes = (
"394 204 LINE",
"458 303 OFFCURVE",
"453 461 OFFCURVE",
"486 580 CURVE",
"453 598 OFFCURVE",
"398 610 OFFCURVE",
"355 610 CURVE SMOOTH",
"301 610 OFFCURVE",
"274 586 OFFCURVE",
"274 553 CURVE SMOOTH",
"274 493 OFFCURVE",
"324 383 OFFCURVE",
"402 317 CURVE",
"402 247 OFFCURVE",
"362 165 OFFCURVE",
"362 133 CURVE"
);
}
);
width = 600;
}
);
unicode = 0076;
},
{
glyphname = w;
lastChange = "2021-04-14 23:14:17 +0000";
layers = (
{
layerId = "DDCA3057-FCE3-4B6F-9FEB-7372E00EB870";
paths = (
{
closed = 1;
nodes = (
"643 213 OFFCURVE",
"617 213 CURVE",
"593 160 OFFCURVE",
"558 142 OFFCURVE",
"529 142 CURVE SMOOTH",
"453 142 OFFCURVE",
"392 217 OFFCURVE",
"366 235 CURVE",
"363 204 LINE",
"422 283 OFFCURVE",
"449 400 OFFCURVE",
"446 590 CURVE",
"423 603 OFFCURVE",
"398 610 OFFCURVE",
"345 610 CURVE SMOOTH",
"301 610 OFFCURVE",
"274 596 OFFCURVE",
"274 563 CURVE SMOOTH",
"274 503 OFFCURVE",
"344 383 OFFCURVE",
"382 317 CURVE",
"382 247 OFFCURVE",
"342 165 OFFCURVE",
"342 133 CURVE SMOOTH",
"342 39 OFFCURVE",
"408 -10 OFFCURVE",
"489 -10 CURVE SMOOTH",
"602 -10 OFFCURVE",
"636 113 OFFCURVE",
"703 181 CURVE",
"668 202 OFFCURVE"
);
},
{
closed = 1;
nodes = (
"369 256 OFFCURVE",
"350 155 OFFCURVE",
"289 155 CURVE SMOOTH",
"223 155 OFFCURVE",
"167 219 OFFCURVE",
"140 233 CURVE",
"138 204 LINE",
"196 283 OFFCURVE",
"230 400 OFFCURVE",
"227 590 CURVE",
"204 603 OFFCURVE",
"179 610 OFFCURVE",
"136 610 CURVE SMOOTH",
"48 610 OFFCURVE",
"3 537 OFFCURVE",
"-10 363 CURVE",
"20 374 OFFCURVE",
"54 377 OFFCURVE",
"84 377 CURVE SMOOTH",
"146 377 OFFCURVE",
"163 354 OFFCURVE",
"163 325 CURVE SMOOTH",
"163 294 OFFCURVE",
"150 265 OFFCURVE",
"132 227 CURVE",
"77 198 OFFCURVE",
"53 151 OFFCURVE",
"53 103 CURVE SMOOTH",
"53 29 OFFCURVE",
"109 -10 OFFCURVE",
"178 -10 CURVE SMOOTH",
"261 -10 OFFCURVE",
"343 49 OFFCURVE",
"379 257 CURVE",
"384 337 LINE"
);
},
{
closed = 1;
nodes = (
"624 155 LINE",
"617 399 OFFCURVE",
"663 492 OFFCURVE",
"727 529 CURVE",
"696 576 OFFCURVE",
"645 610 OFFCURVE",
"603 610 CURVE SMOOTH",
"520 610 OFFCURVE",
"495 553 OFFCURVE",
"495 509 CURVE SMOOTH",
"495 376 OFFCURVE",
"606 289 OFFCURVE",
"606 183 CURVE"
);
}
);
width = 720;
},
{
layerId = "4A9CA44B-DF09-4212-AC56-7B16FEBDD924";
paths = (
{
closed = 1;
nodes = (
"643 213 OFFCURVE",
"617 213 CURVE",
"593 160 OFFCURVE",
"558 142 OFFCURVE",
"529 142 CURVE SMOOTH",
"453 142 OFFCURVE",
"392 217 OFFCURVE",
"366 235 CURVE",
"363 204 LINE",
"422 283 OFFCURVE",
"449 400 OFFCURVE",
"446 590 CURVE",
"423 603 OFFCURVE",
"398 610 OFFCURVE",
"345 610 CURVE SMOOTH",
"301 610 OFFCURVE",
"274 596 OFFCURVE",
"274 563 CURVE SMOOTH",
"274 503 OFFCURVE",
"344 383 OFFCURVE",
"382 317 CURVE",
"382 247 OFFCURVE",
"342 165 OFFCURVE",
"342 133 CURVE SMOOTH",
"342 39 OFFCURVE",
"408 -10 OFFCURVE",
"489 -10 CURVE SMOOTH",
"602 -10 OFFCURVE",
"636 113 OFFCURVE",
"703 181 CURVE",
"668 202 OFFCURVE"
);
},
{
closed = 1;
nodes = (
"369 256 OFFCURVE",
"350 155 OFFCURVE",
"289 155 CURVE SMOOTH",
"223 155 OFFCURVE",
"167 219 OFFCURVE",
"140 233 CURVE",
"138 204 LINE",
"196 283 OFFCURVE",
"230 400 OFFCURVE",
"227 590 CURVE",
"204 603 OFFCURVE",
"179 610 OFFCURVE",
"136 610 CURVE SMOOTH",
"48 610 OFFCURVE",
"3 537 OFFCURVE",
"-10 363 CURVE",
"20 374 OFFCURVE",
"54 377 OFFCURVE",
"84 377 CURVE SMOOTH",
"146 377 OFFCURVE",
"163 354 OFFCURVE",
"163 325 CURVE SMOOTH",
"163 294 OFFCURVE",
"150 265 OFFCURVE",
"132 227 CURVE",
"77 198 OFFCURVE",
"53 151 OFFCURVE",
"53 103 CURVE SMOOTH",
"53 29 OFFCURVE",
"109 -10 OFFCURVE",
"178 -10 CURVE SMOOTH",
"261 -10 OFFCURVE",
"343 49 OFFCURVE",
"379 257 CURVE",
"384 337 LINE"
);
},
{
closed = 1;
nodes = (
"624 155 LINE",
"617 399 OFFCURVE",
"663 492 OFFCURVE",
"727 529 CURVE",
"696 576 OFFCURVE",
"645 610 OFFCURVE",
"603 610 CURVE SMOOTH",
"520 610 OFFCURVE",
"495 553 OFFCURVE",
"495 509 CURVE SMOOTH",
"495 376 OFFCURVE",
"606 289 OFFCURVE",
"606 183 CURVE"
);
}
);
width = 600;
}
);
unicode = 0077;
},
{
glyphname = y;
lastChange = "2021-04-14 23:14:21 +0000";
layers = (
{
layerId = "DDCA3057-FCE3-4B6F-9FEB-7372E00EB870";
paths = (
{
closed = 1;
nodes = (
"149 379 OFFCURVE",
"246 480 OFFCURVE",
"246 549 CURVE SMOOTH",
"246 584 OFFCURVE",
"229 610 OFFCURVE",
"181 610 CURVE SMOOTH",
"108 610 OFFCURVE",
"44 576 OFFCURVE",
"-1 522 CURVE",
"88 431 OFFCURVE",
"122 356 OFFCURVE",
"131 246 CURVE",
"148 297 LINE",
"94 248 OFFCURVE",
"49 191 OFFCURVE",
"49 113 CURVE SMOOTH",
"49 49 OFFCURVE",
"85 20 OFFCURVE",
"144 20 CURVE SMOOTH",
"229 20 OFFCURVE",
"348 155 OFFCURVE",
"383 278 CURVE",
"375 296 LINE",
"349 225 OFFCURVE",
"267 185 OFFCURVE",
"206 185 CURVE SMOOTH",
"172 185 OFFCURVE",
"149 205 OFFCURVE",
"149 251 CURVE SMOOTH"
);
},
{
closed = 1;
nodes = (
"447 398 OFFCURVE",
"503 514 OFFCURVE",
"513 599 CURVE",
"369 599 OFFCURVE",
"311 570 OFFCURVE",
"311 509 CURVE SMOOTH",
"311 427 OFFCURVE",
"345 345 OFFCURVE",
"385 275 CURVE",
"370 310 LINE",
"385 233 OFFCURVE",
"398 46 OFFCURVE",
"377 -150 CURVE",
"419 -109 LINE",
"200 -89 OFFCURVE",
"81 -60 OFFCURVE",
"33 4 CURVE",
"2 -35 OFFCURVE",
"-18 -75 OFFCURVE",
"-18 -111 CURVE SMOOTH",
"-18 -165 OFFCURVE",
"35 -200 OFFCURVE",
"224 -200 CURVE SMOOTH",
"428 -200 OFFCURVE",
"536 -171 OFFCURVE",
"541 -70 CURVE SMOOTH",
"546 22 OFFCURVE",
"417 175 OFFCURVE",
"397 307 CURVE"
);
}
);
width = 522;
},
{
layerId = "4A9CA44B-DF09-4212-AC56-7B16FEBDD924";
paths = (
{
closed = 1;
nodes = (
"149 379 OFFCURVE",
"246 480 OFFCURVE",
"246 549 CURVE SMOOTH",
"246 584 OFFCURVE",
"229 610 OFFCURVE",
"181 610 CURVE SMOOTH",
"108 610 OFFCURVE",
"44 576 OFFCURVE",
"-1 522 CURVE",
"88 431 OFFCURVE",
"122 356 OFFCURVE",
"131 246 CURVE",
"148 297 LINE",
"94 248 OFFCURVE",
"49 191 OFFCURVE",
"49 113 CURVE SMOOTH",
"49 49 OFFCURVE",
"85 20 OFFCURVE",
"144 20 CURVE SMOOTH",
"229 20 OFFCURVE",
"348 155 OFFCURVE",
"383 278 CURVE",
"375 296 LINE",
"349 225 OFFCURVE",
"267 185 OFFCURVE",
"206 185 CURVE SMOOTH",
"172 185 OFFCURVE",
"149 205 OFFCURVE",
"149 251 CURVE SMOOTH"
);
},
{
closed = 1;
nodes = (
"447 398 OFFCURVE",
"503 514 OFFCURVE",
"513 599 CURVE",
"369 599 OFFCURVE",
"311 570 OFFCURVE",
"311 509 CURVE SMOOTH",
"311 427 OFFCURVE",
"345 345 OFFCURVE",
"385 275 CURVE",
"370 310 LINE",
"385 233 OFFCURVE",
"398 46 OFFCURVE",
"377 -150 CURVE",
"419 -109 LINE",
"200 -89 OFFCURVE",
"81 -60 OFFCURVE",
"33 4 CURVE",
"2 -35 OFFCURVE",
"-18 -75 OFFCURVE",
"-18 -111 CURVE SMOOTH",
"-18 -165 OFFCURVE",
"35 -200 OFFCURVE",
"224 -200 CURVE SMOOTH",
"428 -200 OFFCURVE",
"536 -171 OFFCURVE",
"541 -70 CURVE SMOOTH",
"546 22 OFFCURVE",
"417 175 OFFCURVE",
"397 307 CURVE"
);
}
);
width = 600;
}
);
unicode = 0079;
},
{
glyphname = z;
lastChange = "2021-04-14 23:14:25 +0000";
layers = (
{
layerId = "DDCA3057-FCE3-4B6F-9FEB-7372E00EB870";
paths = (
{
closed = 1;
nodes = (
"145 196 OFFCURVE",
"114 154 OFFCURVE",
"88 119 CURVE",
"51 91 OFFCURVE",
"22 66 OFFCURVE",
"9 21 CURVE",
"30 11 OFFCURVE",
"93 -10 OFFCURVE",
"257 -10 CURVE SMOOTH",
"388 -10 OFFCURVE",
"491 9 OFFCURVE",
"491 90 CURVE SMOOTH",
"491 131 OFFCURVE",
"468 195 OFFCURVE",
"436 225 CURVE",
"406 185 OFFCURVE",
"206 120 OFFCURVE",
"103 120 CURVE",
"116 101 LINE",
"156 203 OFFCURVE",
"478 376 OFFCURVE",
"478 552 CURVE SMOOTH",
"478 579 OFFCURVE",
"455 600 OFFCURVE",
"412 600 CURVE SMOOTH",
"374 600 OFFCURVE",
"328 594 OFFCURVE",
"285 570 CURVE",
"319 471 OFFCURVE",
"312 347 OFFCURVE",
"186 233 CURVE SMOOTH"
);
},
{
closed = 1;
nodes = (
"90 392 OFFCURVE",
"133 415 OFFCURVE",
"180 415 CURVE SMOOTH",
"219 415 OFFCURVE",
"273 392 OFFCURVE",
"273 359 CURVE SMOOTH",
"273 342 OFFCURVE",
"265 329 OFFCURVE",
"251 306 CURVE",
"292 361 LINE",
"288 498 OFFCURVE",
"201 610 OFFCURVE",
"110 610 CURVE SMOOTH",
"47 610 OFFCURVE",
"11 571 OFFCURVE",
"11 487 CURVE SMOOTH",
"11 439 OFFCURVE",
"23 396 OFFCURVE",
"46 353 CURVE"
);
}
);
width = 497;
},
{
layerId = "4A9CA44B-DF09-4212-AC56-7B16FEBDD924";
paths = (
{
closed = 1;
nodes = (
"145 196 OFFCURVE",
"114 154 OFFCURVE",
"88 119 CURVE",
"51 91 OFFCURVE",
"22 66 OFFCURVE",
"9 21 CURVE",
"30 11 OFFCURVE",
"93 -10 OFFCURVE",
"257 -10 CURVE SMOOTH",
"388 -10 OFFCURVE",
"491 9 OFFCURVE",
"491 90 CURVE SMOOTH",
"491 131 OFFCURVE",
"468 195 OFFCURVE",
"436 225 CURVE",
"406 185 OFFCURVE",
"206 120 OFFCURVE",
"103 120 CURVE",
"116 101 LINE",
"156 203 OFFCURVE",
"478 376 OFFCURVE",
"478 552 CURVE SMOOTH",
"478 579 OFFCURVE",
"455 600 OFFCURVE",
"412 600 CURVE SMOOTH",
"374 600 OFFCURVE",
"328 594 OFFCURVE",
"285 570 CURVE",
"319 471 OFFCURVE",
"312 347 OFFCURVE",
"186 233 CURVE SMOOTH"
);
},
{
closed = 1;
nodes = (
"90 392 OFFCURVE",
"133 415 OFFCURVE",
"180 415 CURVE SMOOTH",
"219 415 OFFCURVE",
"273 392 OFFCURVE",
"273 359 CURVE SMOOTH",
"273 342 OFFCURVE",
"265 329 OFFCURVE",
"251 306 CURVE",
"292 361 LINE",
"288 498 OFFCURVE",
"201 610 OFFCURVE",
"110 610 CURVE SMOOTH",
"47 610 OFFCURVE",
"11 571 OFFCURVE",
"11 487 CURVE SMOOTH",
"11 439 OFFCURVE",
"23 396 OFFCURVE",
"46 353 CURVE"
);
}
);
width = 600;
}
);
unicode = 007A;
},
{
glyphname = period;
lastChange = "2021-04-14 23:14:58 +0000";
layers = (
{
layerId = "DDCA3057-FCE3-4B6F-9FEB-7372E00EB870";
paths = (
{
closed = 1;
nodes = (
"244 185 OFFCURVE",
"201 203 OFFCURVE",
"153 203 CURVE SMOOTH",
"101 203 OFFCURVE",
"67 175 OFFCURVE",
"65 127 CURVE SMOOTH",
"62 77 OFFCURVE",
"89 23 OFFCURVE",
"111 -10 CURVE",
"206 -7 OFFCURVE",
"272 42 OFFCURVE",
"274 157 CURVE"
);
}
);
width = 299;
},
{
layerId = "4A9CA44B-DF09-4212-AC56-7B16FEBDD924";
paths = (
{
closed = 1;
nodes = (
"244 185 OFFCURVE",
"201 203 OFFCURVE",
"153 203 CURVE SMOOTH",
"101 203 OFFCURVE",
"67 175 OFFCURVE",
"65 127 CURVE SMOOTH",
"62 77 OFFCURVE",
"89 23 OFFCURVE",
"111 -10 CURVE",
"206 -7 OFFCURVE",
"272 42 OFFCURVE",
"274 157 CURVE"
);
}
);
width = 600;
}
);
unicode = 002E;
},
{
glyphname = comma;
lastChange = "2021-04-14 23:15:02 +0000";
layers = (
{
background = {
paths = (
{
closed = 1;
nodes = (
"238 185 OFFCURVE",
"195 203 OFFCURVE",
"147 203 CURVE SMOOTH",
"95 203 OFFCURVE",
"61 175 OFFCURVE",
"59 127 CURVE SMOOTH",
"56 77 OFFCURVE",
"83 23 OFFCURVE",
"105 -10 CURVE",
"200 -7 OFFCURVE",
"266 42 OFFCURVE",
"268 157 CURVE"
);
}
);
};
layerId = "DDCA3057-FCE3-4B6F-9FEB-7372E00EB870";
paths = (
{
closed = 1;
nodes = (
"226 185 OFFCURVE",
"194 203 OFFCURVE",
"146 203 CURVE SMOOTH",
"84 203 OFFCURVE",
"53 175 OFFCURVE",
"53 137 CURVE SMOOTH",
"53 90 OFFCURVE",
"106 30 OFFCURVE",
"204 30 CURVE",
"210 73 OFFCURVE",
"253 122 OFFCURVE",
"248 167 CURVE"
);
},
{
closed = 1;
nodes = (
"204 30 LINE",
"190 6 OFFCURVE",
"157 -7 OFFCURVE",
"105 -7 CURVE SMOOTH",
"75 -7 OFFCURVE",
"56 -2 OFFCURVE",
"41 7 CURVE",
"44 -67 OFFCURVE",
"69 -120 OFFCURVE",
"127 -120 CURVE SMOOTH",
"213 -120 OFFCURVE",
"248 21 OFFCURVE",
"248 166 CURVE",
"216 112 LINE"
);
}
);
width = 276;
},
{
layerId = "4A9CA44B-DF09-4212-AC56-7B16FEBDD924";
paths = (
{
closed = 1;
nodes = (
"226 185 OFFCURVE",
"194 203 OFFCURVE",
"146 203 CURVE SMOOTH",
"84 203 OFFCURVE",
"53 175 OFFCURVE",
"53 137 CURVE SMOOTH",
"53 90 OFFCURVE",
"106 30 OFFCURVE",
"204 30 CURVE",
"210 73 OFFCURVE",
"253 122 OFFCURVE",
"248 167 CURVE"
);
},
{
closed = 1;
nodes = (
"204 30 LINE",
"190 6 OFFCURVE",
"157 -7 OFFCURVE",
"105 -7 CURVE SMOOTH",
"75 -7 OFFCURVE",
"56 -2 OFFCURVE",
"41 7 CURVE",
"44 -67 OFFCURVE",
"69 -120 OFFCURVE",
"127 -120 CURVE SMOOTH",
"213 -120 OFFCURVE",
"248 21 OFFCURVE",
"248 166 CURVE",
"216 112 LINE"
);
}
);
width = 600;
}
);
unicode = 002C;
},
{
glyphname = exclam;
lastChange = "2021-04-14 23:15:11 +0000";
layers = (
{
layerId = "DDCA3057-FCE3-4B6F-9FEB-7372E00EB870";
paths = (
{
closed = 1;
nodes = (
"89 171 OFFCURVE",
"51 118 OFFCURVE",
"51 70 CURVE SMOOTH",
"51 28 OFFCURVE",
"79 -6 OFFCURVE",
"127 -8 CURVE SMOOTH",
"177 -11 OFFCURVE",
"231 16 OFFCURVE",
"264 38 CURVE",
"261 123 OFFCURVE",
"222 179 OFFCURVE",
"147 204 CURVE"
);
},
{
closed = 1;
nodes = (
"204 466 OFFCURVE",
"277 650 OFFCURVE",
"277 719 CURVE SMOOTH",
"277 774 OFFCURVE",
"250 800 OFFCURVE",
"182 800 CURVE SMOOTH",
"111 800 OFFCURVE",
"35 766 OFFCURVE",
"0 712 CURVE",
"78 633 OFFCURVE",
"122 431 OFFCURVE",
"143 276 CURVE",
"163 276 LINE"
);
}
);
width = 299;
},
{
layerId = "4A9CA44B-DF09-4212-AC56-7B16FEBDD924";
paths = (
{
closed = 1;
nodes = (
"89 171 OFFCURVE",
"51 118 OFFCURVE",
"51 70 CURVE SMOOTH",
"51 28 OFFCURVE",
"79 -6 OFFCURVE",
"127 -8 CURVE SMOOTH",
"177 -11 OFFCURVE",
"231 16 OFFCURVE",
"264 38 CURVE",
"261 123 OFFCURVE",
"222 179 OFFCURVE",
"147 204 CURVE"
);
},
{
closed = 1;
nodes = (
"204 466 OFFCURVE",
"277 650 OFFCURVE",
"277 719 CURVE SMOOTH",
"277 774 OFFCURVE",
"250 800 OFFCURVE",
"182 800 CURVE SMOOTH",
"111 800 OFFCURVE",
"35 766 OFFCURVE",
"0 712 CURVE",
"78 633 OFFCURVE",
"122 431 OFFCURVE",
"143 276 CURVE",
"163 276 LINE"
);
}
);
width = 600;
}
);
unicode = 0021;
},
{
glyphname = question;
lastChange = "2021-04-14 23:15:05 +0000";
layers = (
{
layerId = "DDCA3057-FCE3-4B6F-9FEB-7372E00EB870";
paths = (
{
closed = 1;
nodes = (
"219 171 OFFCURVE",
"181 118 OFFCURVE",
"181 70 CURVE SMOOTH",
"181 28 OFFCURVE",
"209 -6 OFFCURVE",
"257 -8 CURVE SMOOTH",
"307 -11 OFFCURVE",
"361 16 OFFCURVE",
"394 38 CURVE",
"391 123 OFFCURVE",
"352 179 OFFCURVE",
"277 204 CURVE"
);
}
);
width = 600;
},
{
layerId = "4A9CA44B-DF09-4212-AC56-7B16FEBDD924";
paths = (
{
closed = 1;
nodes = (
"219 171 OFFCURVE",
"181 118 OFFCURVE",
"181 70 CURVE SMOOTH",
"181 28 OFFCURVE",
"209 -6 OFFCURVE",
"257 -8 CURVE SMOOTH",
"307 -11 OFFCURVE",
"361 16 OFFCURVE",
"394 38 CURVE",
"391 123 OFFCURVE",
"352 179 OFFCURVE",
"277 204 CURVE"
);
}
);
width = 600;
}
);
unicode = 003F;
},
{
glyphname = hyphen;
lastChange = "2021-04-14 23:15:35 +0000";
layers = (
{
layerId = "DDCA3057-FCE3-4B6F-9FEB-7372E00EB870";
paths = (
{
closed = 1;
nodes = (
"281 349 OFFCURVE",
"189 400 OFFCURVE",
"64 400 CURVE",
"51 381 OFFCURVE",
"40 345 OFFCURVE",
"40 311 CURVE SMOOTH",
"40 263 OFFCURVE",
"110 226 OFFCURVE",
"234 226 CURVE SMOOTH",
"357 226 OFFCURVE",
"394 281 OFFCURVE",
"394 401 CURVE"
);
}
);
width = 425;
},
{
layerId = "4A9CA44B-DF09-4212-AC56-7B16FEBDD924";
paths = (
{
closed = 1;
nodes = (
"281 349 OFFCURVE",
"189 400 OFFCURVE",
"64 400 CURVE",
"51 381 OFFCURVE",
"40 345 OFFCURVE",
"40 311 CURVE SMOOTH",
"40 263 OFFCURVE",
"110 226 OFFCURVE",
"234 226 CURVE SMOOTH",
"357 226 OFFCURVE",
"394 281 OFFCURVE",
"394 401 CURVE"
);
}
);
width = 600;
}
);
unicode = 002D;
},
